#N canvas 414 22 472 401 10;
#X declare -path ..;
#X obj 349 27 pddp/dsp;
#X obj 225 7 ../mix-settings;
#X obj 336 5 declare -path ..;
#X obj 236 74 ../tn-hsl clock/ticker;
#N canvas 131 90 450 300 init 0;
#X obj 35 36 loadbang;
#X obj 35 87 send pd;
#X msg 35 64 audio-dialog 0 0 0 0 2 0 0 0 0 0 0 0 2 0 0 0 48000 20
0;
#X connect 0 0 2 0;
#X connect 2 0 1 0;
#X restore 173 3 pd init;
#X msg 29 4 950;
#X obj 158 368 dac~;
#X obj 75 325 catch~ left;
#X obj 149 325 catch~ right;
#X obj 29 337 tgl 15 0 empty empty empty 17 7 0 10 -262144 -1 -1 0
1;
#N canvas 0 22 445 336 record 0;
#X obj 127 21 inlet;
#X obj 130 272 writesf~ 2;
#X msg 302 218 open \$1;
#X symbolatom 302 179 0 0 0 0 - - -;
#X obj 166 136 trigger anything bang;
#X msg 166 111 start;
#X msg 129 110 stop;
#X obj 129 82 select 0 1;
#N canvas 301 134 450 268 generate 0;
#X obj 36 19 inlet;
#X obj 31 216 outlet;
#X obj 37 47 trigger bang bang bang;
#X obj 196 74 zexy/time;
#X obj 101 74 hcs/ISOdate;
#X obj 31 131 zexy/makesymbol %s/TN_%s_%s.%s.%s.wav;
#X obj 31 103 pack symbol symbol float float float;
#X symbolatom 41 166 0 0 0 0 - - -;
#X msg 87 15 bang;
#X obj 10 75 ggee/getdir 4;
#X connect 0 0 2 0;
#X connect 2 0 9 0;
#X connect 2 1 4 0;
#X connect 2 2 3 0;
#X connect 3 0 6 2;
#X connect 3 1 6 3;
#X connect 3 2 6 4;
#X connect 4 0 6 1;
#X connect 5 0 1 0;
#X connect 5 0 7 0;
#X connect 6 0 5 0;
#X connect 8 0 9 0;
#X connect 9 0 6 0;
#X restore 302 158 pd generate filename;
#X obj 129 60 tgl 15 0 empty empty empty 17 7 0 10 -262144 -1 -1 0
1;
#X msg 309 137 bang;
#X obj 165 208 inlet~;
#X obj 214 208 inlet~;
#X connect 0 0 9 0;
#X connect 2 0 1 0;
#X connect 3 0 2 0;
#X connect 4 0 1 0;
#X connect 4 1 8 0;
#X connect 5 0 4 0;
#X connect 6 0 1 0;
#X connect 7 0 6 0;
#X connect 7 1 5 0;
#X connect 8 0 3 0;
#X connect 9 0 7 0;
#X connect 10 0 8 0;
#X connect 11 0 1 0;
#X connect 12 0 1 1;
#X restore 28 369 pd record everything;
#X obj 236 51 ../tn-hsl background;
#X obj 64 95 ../background;
#X obj 30 25 framesync/frameclock 5736;
#X obj 30 304 framesync/fsrecordctrl 5736;
#N canvas 496 99 450 300 (subpatch) 0;
#X obj 100 100 tgl 25 0 TN_MUTE TN_MUTE_RECEIVE MUTE 1 13 0 10 -233017
-33289 -33289 0 1;
#N canvas 524 22 450 300 color 0;
#X obj 149 22 inlet;
#X obj 153 269 outlet;
#X msg 146 220 color \$1 12 12;
#X obj 147 168 select 0 1;
#X msg 145 190 10;
#X msg 180 190 13;
#X obj 76 154 loadbang;
#X connect 0 0 3 0;
#X connect 2 0 1 0;
#X connect 3 0 4 0;
#X connect 3 1 5 0;
#X connect 4 0 2 0;
#X connect 5 0 2 0;
#X connect 6 0 4 0;
#X restore 128 104 pd color;
#X connect 0 0 1 0;
#X connect 1 0 0 0;
#X coords 0 -1 1 1 25 25 1 100 100;
#X restore 436 23 pd;
#N canvas 124 64 628 325 60framerotate 0;
#X obj 39 8 inlet;
#X obj 299 71 soundfiler;
#X obj 299 23 loadbang;
#X obj 52 234 throw~ left;
#X obj 132 234 throw~ right;
#X obj 106 177 *~;
#X obj 298 3 table 60framerotate;
#X msg 299 48 read -resize ../60framerotate.wav 60framerotate;
#X obj 141 150 receive 60framerotate;
#X obj 102 128 framesync/fstabplay~ 60framerotate 1831;
#X connect 2 0 7 0;
#X connect 5 0 3 0;
#X connect 5 0 4 0;
#X connect 7 0 1 0;
#X connect 8 0 5 1;
#X connect 9 0 5 0;
#X restore 57 139 pd 60framerotate;
#X obj 236 97 ../tn-hsl 60framerotate;
#X msg 59 5 1650;
#X obj 61 117 clock/ticker 1705 4934 153;
#X connect 5 0 13 0;
#X connect 7 0 6 0;
#X connect 7 0 10 1;
#X connect 8 0 6 1;
#X connect 8 0 10 2;
#X connect 9 0 10 0;
#X connect 13 0 12 0;
#X connect 13 0 14 0;
#X connect 13 0 16 0;
#X connect 13 0 19 0;
#X connect 14 0 9 0;
#X connect 18 0 13 0;
