#N canvas 770 395 493 473 10;
#X obj 29 37 noise~;
#X obj 46 381 pan/equal_power_pan~;
#X obj 47 9 inlet;
#X obj 181 7 inlet;
#X obj 316 420 outlet;
#X obj 163 423 outlet~;
#X obj 46 423 outlet~;
#X obj 42 212 *~;
#X obj 42 152 osc~;
#X obj 46 361 *~;
#X obj 26 254 vcf~ 2;
#X obj 42 172 +~ 2;
#X obj 42 192 /~ 2;
#X obj 62 340 line~;
#X obj 163 340 % 5;
#X obj 163 320 float \$1;
#X obj 304 54 float \$1;
#X obj 249 54 float \$2;
#X obj 181 53 route \$1;
#X obj 107 296 framesync/fps_ms;
#X obj 62 320 pack 0 0;
#X obj 107 276 loadbang;
#X obj 42 232 +~ 100;
#X obj 80 193 * 6;
#X obj 181 30 trigger anything bang bang;
#X obj 42 132 /;
#X obj 57 113 * 2;
#X obj 42 87 random;
#X obj 163 360 / 4;
#X connect 0 0 10 0;
#X connect 1 0 6 0;
#X connect 1 1 5 0;
#X connect 3 0 24 0;
#X connect 7 0 22 0;
#X connect 8 0 11 0;
#X connect 9 0 1 0;
#X connect 10 0 9 0;
#X connect 11 0 12 0;
#X connect 12 0 7 0;
#X connect 13 0 9 1;
#X connect 14 0 28 0;
#X connect 15 0 14 0;
#X connect 16 0 15 0;
#X connect 17 0 23 0;
#X connect 17 0 26 0;
#X connect 17 0 27 1;
#X connect 18 0 20 0;
#X connect 19 0 20 1;
#X connect 20 0 13 0;
#X connect 21 0 19 0;
#X connect 22 0 10 1;
#X connect 23 0 7 1;
#X connect 24 0 18 0;
#X connect 24 1 27 0;
#X connect 24 2 16 0;
#X connect 24 2 17 0;
#X connect 25 0 8 0;
#X connect 26 0 25 1;
#X connect 27 0 25 0;
#X connect 28 0 1 1;
