#N canvas 197 349 472 401 10;
#X declare -path ..;
#X obj 337 24 pddp/dsp;
#X obj 225 7 ../mix-settings;
#X obj 366 5 declare -path ..;
#X obj 40 359 dac~;
#X obj 27 319 catch~ left;
#X obj 101 319 catch~ right;
#X obj 236 51 ../tn-hsl clock/ticker;
#N canvas 131 90 450 300 init 0;
#X obj 35 36 loadbang;
#X obj 35 87 send pd;
#X msg 35 64 audio-dialog 0 0 0 0 2 0 0 0 0 0 0 0 2 0 0 0 48000 20
0;
#X connect 0 0 2 0;
#X connect 2 0 1 0;
#X restore 420 24 pd init;
#N canvas 180 321 606 416 rotate 0;
#X obj 90 10 inlet;
#X obj 310 87 soundfiler;
#X obj 310 39 loadbang;
#X obj 309 19 table rotatemap;
#X obj 53 173 framesync/fstabplay~ rotatemap 30;
#X msg 310 64 read -resize ../rotatemap.wav rotatemap;
#X obj 52 226 *~;
#X obj 32 257 throw~ left;
#X obj 112 257 throw~ right;
#X obj 67 202 receive rotatemap;
#X obj 43 153 framesync/fstabplay~ rotatemap 3030;
#X connect 2 0 5 0;
#X connect 4 0 6 0;
#X connect 5 0 1 0;
#X connect 6 0 7 0;
#X connect 6 0 8 0;
#X connect 9 0 6 1;
#X connect 10 0 6 0;
#X restore 89 101 pd rotate map;
#X obj 236 74 ../tn-hsl rotatemap;
#X obj 30 25 framesync/frameclock 3122;
#N canvas 116 286 505 435 latitudetinks 0;
#X obj 111 32 inlet;
#X obj 303 374 *~;
#X obj 303 397 throw~ left;
#X obj 329 84 soundfiler;
#X obj 329 36 loadbang;
#X obj 328 16 table tink;
#X msg 329 61 read -resize tink.wav tink;
#X obj 318 350 receive latitudetinks;
#X obj 304 321 framesync/fstabplay~ tink 129;
#X obj 293 301 framesync/fstabplay~ tink 126;
#X obj 284 281 framesync/fstabplay~ tink 125;
#X obj 274 261 framesync/fstabplay~ tink 124;
#X obj 254 241 framesync/fstabplay~ tink 123;
#X obj 244 221 framesync/fstabplay~ tink 122;
#X obj 234 201 framesync/fstabplay~ tink 121;
#X obj 96 375 *~;
#X obj 96 398 throw~ left;
#X obj 111 351 receive latitudetinks;
#X obj 224 180 framesync/fstabplay~ tink 120;
#X obj 97 322 framesync/fstabplay~ tink 118;
#X obj 86 302 framesync/fstabplay~ tink 117;
#X obj 77 282 framesync/fstabplay~ tink 116;
#X obj 67 262 framesync/fstabplay~ tink 114;
#X obj 47 242 framesync/fstabplay~ tink 112;
#X obj 37 222 framesync/fstabplay~ tink 112;
#X obj 17 182 framesync/fstabplay~ tink 110;
#X obj 27 202 framesync/fstabplay~ tink 111;
#X connect 1 0 2 0;
#X connect 4 0 6 0;
#X connect 6 0 3 0;
#X connect 7 0 1 1;
#X connect 8 0 1 0;
#X connect 9 0 1 0;
#X connect 10 0 1 0;
#X connect 11 0 1 0;
#X connect 12 0 1 0;
#X connect 13 0 1 0;
#X connect 14 0 1 0;
#X connect 15 0 16 0;
#X connect 17 0 15 1;
#X connect 18 0 1 0;
#X connect 19 0 15 0;
#X connect 20 0 15 0;
#X connect 21 0 15 0;
#X connect 22 0 15 0;
#X connect 23 0 15 0;
#X connect 24 0 15 0;
#X connect 25 0 15 0;
#X connect 26 0 15 0;
#X restore 75 120 pd latitudetinks;
#X obj 236 97 ../tn-hsl latitudetinks;
#N canvas 741 533 587 466 countrypopup 0;
#X obj 37 18 inlet;
#X obj 320 97 soundfiler;
#X obj 320 49 loadbang;
#X obj 89 368 *~;
#X obj 89 402 throw~ left;
#X obj 201 402 throw~ right;
#X obj 201 373 *~;
#X obj 223 343 receive countrypopup;
#X obj 319 29 table countrypopup;
#X msg 320 74 read -resize ../corkpop.wav countrypopup;
#X obj 182 202 random 5;
#X obj 182 223 / 5;
#X obj 89 316 voicepoly 5 ../multiplay~ countrypopup;
#X obj 89 124 select 0;
#X obj 37 56 moses 216;
#X obj 89 77 moses 540;
#X obj 89 246 pack float float;
#X obj 89 179 trigger bang bang;
#X obj 89 222 random 200;
#X obj 89 101 % 3;
#X connect 0 0 14 0;
#X connect 2 0 9 0;
#X connect 3 0 4 0;
#X connect 6 0 5 0;
#X connect 7 0 3 1;
#X connect 7 0 6 1;
#X connect 9 0 1 0;
#X connect 10 0 11 0;
#X connect 11 0 16 1;
#X connect 12 0 3 0;
#X connect 12 1 6 0;
#X connect 13 0 17 0;
#X connect 14 1 15 0;
#X connect 15 0 19 0;
#X connect 16 0 12 0;
#X connect 17 0 18 0;
#X connect 17 1 10 0;
#X connect 18 0 16 0;
#X connect 19 0 13 0;
#X restore 66 139 pd countrypopup;
#X obj 236 120 ../tn-hsl countrypopup;
#X msg 29 4 200;
#N canvas 579 437 587 466 zoompopup 0;
#X obj 37 18 inlet;
#X obj 320 97 soundfiler;
#X obj 320 49 loadbang;
#X obj 89 368 *~;
#X obj 89 402 throw~ left;
#X obj 201 402 throw~ right;
#X obj 201 373 *~;
#X obj 319 29 table zoompopup;
#X msg 320 74 read -resize ../corkpop.wav zoompopup;
#X obj 89 316 voicepoly 5 ../multiplay~ zoompopup;
#X obj 223 344 receive zoompopup;
#X obj 37 56 moses 842;
#X obj 88 78 moses 930;
#X obj 88 102 % 20;
#X obj 88 125 select 0;
#X msg 92 249 0 0.5;
#X connect 0 0 11 0;
#X connect 2 0 8 0;
#X connect 3 0 4 0;
#X connect 6 0 5 0;
#X connect 8 0 1 0;
#X connect 9 0 3 0;
#X connect 9 1 6 0;
#X connect 10 0 3 1;
#X connect 10 0 6 1;
#X connect 11 1 12 0;
#X connect 12 0 13 0;
#X connect 13 0 14 0;
#X connect 14 0 15 0;
#X connect 15 0 9 0;
#X restore 59 159 pd zoompopup;
#X obj 236 143 ../tn-hsl zoompopup;
#X msg 59 5 800;
#X obj 236 166 ../tn-hsl 2secrotate;
#N canvas 555 82 570 333 2secrotate 0;
#X obj 41 24 inlet;
#X obj 320 97 soundfiler;
#X obj 320 49 loadbang;
#X obj 42 236 *~;
#X obj 42 267 throw~ left;
#X obj 122 267 throw~ right;
#X obj 319 29 table 2secrotate;
#X msg 320 74 read -resize 2secrotate.wav 2secrotate;
#X obj 157 209 receive 2secrotate;
#X obj 122 183 framesync/fstabplay~ 2secrotate 1770;
#X obj 42 163 framesync/fstabplay~ 2secrotate 1350;
#X obj 122 236 *~;
#X connect 2 0 7 0;
#X connect 3 0 4 0;
#X connect 7 0 1 0;
#X connect 8 0 3 1;
#X connect 8 0 11 1;
#X connect 9 0 11 0;
#X connect 10 0 3 0;
#X connect 11 0 5 0;
#X restore 30 182 pd 2secrotate;
#X connect 4 0 3 0;
#X connect 5 0 3 1;
#X connect 10 0 8 0;
#X connect 10 0 11 0;
#X connect 10 0 13 0;
#X connect 10 0 16 0;
#X connect 10 0 20 0;
#X connect 15 0 10 0;
#X connect 18 0 10 0;
