#N canvas 721 342 472 401 10;
#X declare -path ..;
#X obj 337 24 pddp/dsp;
#X obj 225 7 ../mix-settings;
#X msg 29 4 444;
#X msg 59 5 5000;
#X obj 366 5 declare -path ..;
#X obj 40 359 dac~;
#X obj 27 319 catch~ left;
#X obj 101 319 catch~ right;
#X obj 236 51 ../tn-hsl clock/ticker;
#N canvas 131 90 450 300 init 0;
#X obj 35 36 loadbang;
#X obj 35 87 send pd;
#X msg 35 64 audio-dialog 0 0 0 0 2 0 0 0 0 0 0 0 2 0 0 0 48000 20
0;
#X connect 0 0 2 0;
#X connect 2 0 1 0;
#X restore 420 24 pd init;
#N canvas 180 321 606 416 rotate 0;
#X obj 90 10 inlet;
#X obj 310 87 soundfiler;
#X obj 310 39 loadbang;
#X obj 309 19 table rotatemap;
#X obj 53 173 framesync/fstabplay~ rotatemap 30;
#X msg 310 64 read -resize ../rotatemap.wav rotatemap;
#X obj 52 226 *~;
#X obj 32 257 throw~ left;
#X obj 112 257 throw~ right;
#X obj 67 202 receive rotatemap;
#X obj 43 153 framesync/fstabplay~ rotatemap 3030;
#X connect 2 0 5 0;
#X connect 4 0 6 0;
#X connect 5 0 1 0;
#X connect 6 0 7 0;
#X connect 6 0 8 0;
#X connect 9 0 6 1;
#X connect 10 0 6 0;
#X restore 47 112 pd rotate map;
#X obj 236 74 ../tn-hsl rotatemap;
#X obj 30 25 framesync/frameclock 3122;
#N canvas 116 286 505 435 latitudetinks 1;
#X obj 111 32 inlet;
#X obj 303 374 *~;
#X obj 303 397 throw~ left;
#X obj 329 84 soundfiler;
#X obj 329 36 loadbang;
#X obj 328 16 table tink;
#X msg 329 61 read -resize tink.wav tink;
#X obj 318 350 receive latitudetinks;
#X obj 304 321 framesync/fstabplay~ tink 129;
#X obj 293 301 framesync/fstabplay~ tink 126;
#X obj 284 281 framesync/fstabplay~ tink 125;
#X obj 274 261 framesync/fstabplay~ tink 124;
#X obj 254 241 framesync/fstabplay~ tink 123;
#X obj 244 221 framesync/fstabplay~ tink 122;
#X obj 234 201 framesync/fstabplay~ tink 121;
#X obj 96 375 *~;
#X obj 96 398 throw~ left;
#X obj 111 351 receive latitudetinks;
#X obj 224 180 framesync/fstabplay~ tink 120;
#X obj 97 322 framesync/fstabplay~ tink 118;
#X obj 86 302 framesync/fstabplay~ tink 117;
#X obj 77 282 framesync/fstabplay~ tink 116;
#X obj 67 262 framesync/fstabplay~ tink 114;
#X obj 47 242 framesync/fstabplay~ tink 112;
#X obj 37 222 framesync/fstabplay~ tink 112;
#X obj 17 182 framesync/fstabplay~ tink 110;
#X obj 27 202 framesync/fstabplay~ tink 111;
#X connect 1 0 2 0;
#X connect 4 0 6 0;
#X connect 6 0 3 0;
#X connect 7 0 1 1;
#X connect 8 0 1 0;
#X connect 9 0 1 0;
#X connect 10 0 1 0;
#X connect 11 0 1 0;
#X connect 12 0 1 0;
#X connect 13 0 1 0;
#X connect 14 0 1 0;
#X connect 15 0 16 0;
#X connect 17 0 15 1;
#X connect 18 0 1 0;
#X connect 19 0 15 0;
#X connect 20 0 15 0;
#X connect 21 0 15 0;
#X connect 22 0 15 0;
#X connect 23 0 15 0;
#X connect 24 0 15 0;
#X connect 25 0 15 0;
#X connect 26 0 15 0;
#X restore 32 147 pd latitudetinks;
#X obj 236 97 ../tn-hsl latitudetinks;
#X connect 2 0 12 0;
#X connect 3 0 12 0;
#X connect 6 0 5 0;
#X connect 7 0 5 1;
#X connect 12 0 10 0;
#X connect 12 0 13 0;
