#N canvas 289 320 472 401 10;
#X declare -path ..;
#X obj 337 24 pddp/dsp;
#X obj 225 7 ../mix-settings;
#X obj 366 5 declare -path ..;
#X obj 162 358 dac~;
#X obj 79 315 catch~ left;
#X obj 153 315 catch~ right;
#X obj 236 51 ../tn-hsl clock/ticker;
#N canvas 131 90 450 300 init 0;
#X obj 35 36 loadbang;
#X obj 35 87 send pd;
#X msg 35 64 audio-dialog 0 0 0 0 2 0 0 0 0 0 0 0 2 0 0 0 48000 20
0;
#X connect 0 0 2 0;
#X connect 2 0 1 0;
#X restore 420 24 pd init;
#X obj 236 74 ../tn-hsl 30framerotate;
#N canvas 116 286 505 435 latitudetinks 0;
#X obj 111 32 inlet;
#X obj 303 374 *~;
#X obj 303 397 throw~ left;
#X obj 329 84 soundfiler;
#X obj 329 36 loadbang;
#X obj 328 16 table tink;
#X msg 329 61 read -resize tink.wav tink;
#X obj 318 350 receive latitudetinks;
#X obj 96 375 *~;
#X obj 96 398 throw~ left;
#X obj 111 351 receive latitudetinks;
#X obj 17 182 framesync/fstabplay~ tink 740;
#X obj 27 202 framesync/fstabplay~ tink 741;
#X obj 37 222 framesync/fstabplay~ tink 742;
#X obj 47 242 framesync/fstabplay~ tink 742;
#X obj 67 262 framesync/fstabplay~ tink 744;
#X obj 77 282 framesync/fstabplay~ tink 746;
#X obj 86 302 framesync/fstabplay~ tink 747;
#X obj 97 322 framesync/fstabplay~ tink 748;
#X obj 224 180 framesync/fstabplay~ tink 750;
#X obj 234 201 framesync/fstabplay~ tink 751;
#X obj 244 221 framesync/fstabplay~ tink 752;
#X obj 254 241 framesync/fstabplay~ tink 753;
#X obj 274 261 framesync/fstabplay~ tink 754;
#X obj 284 281 framesync/fstabplay~ tink 755;
#X obj 293 301 framesync/fstabplay~ tink 756;
#X obj 304 321 framesync/fstabplay~ tink 759;
#X connect 1 0 2 0;
#X connect 4 0 6 0;
#X connect 6 0 3 0;
#X connect 7 0 1 1;
#X connect 8 0 9 0;
#X connect 10 0 8 1;
#X connect 11 0 8 0;
#X connect 12 0 8 0;
#X connect 13 0 8 0;
#X connect 14 0 8 0;
#X connect 15 0 8 0;
#X connect 16 0 8 0;
#X connect 17 0 8 0;
#X connect 18 0 8 0;
#X connect 19 0 1 0;
#X connect 20 0 1 0;
#X connect 21 0 1 0;
#X connect 22 0 1 0;
#X connect 23 0 1 0;
#X connect 24 0 1 0;
#X connect 25 0 1 0;
#X connect 26 0 1 0;
#X restore 75 120 pd latitudetinks;
#X obj 236 97 ../tn-hsl latitudetinks;
#N canvas 741 533 587 466 countrypopup 0;
#X obj 37 18 inlet;
#X obj 320 97 soundfiler;
#X obj 320 49 loadbang;
#X obj 89 368 *~;
#X obj 89 402 throw~ left;
#X obj 201 402 throw~ right;
#X obj 201 373 *~;
#X obj 223 343 receive countrypopup;
#X obj 319 29 table countrypopup;
#X msg 320 74 read -resize ../corkpop.wav countrypopup;
#X obj 182 202 random 5;
#X obj 182 223 / 5;
#X obj 89 316 voicepoly 5 ../multiplay~ countrypopup;
#X obj 89 124 select 0;
#X obj 89 246 pack float float;
#X obj 89 179 trigger bang bang;
#X obj 89 222 random 200;
#X obj 37 56 moses 996;
#X obj 89 101 % 5;
#X obj 89 77 moses 1316;
#X connect 0 0 17 0;
#X connect 2 0 9 0;
#X connect 3 0 4 0;
#X connect 6 0 5 0;
#X connect 7 0 3 1;
#X connect 7 0 6 1;
#X connect 9 0 1 0;
#X connect 10 0 11 0;
#X connect 11 0 14 1;
#X connect 12 0 3 0;
#X connect 12 1 6 0;
#X connect 13 0 15 0;
#X connect 14 0 12 0;
#X connect 15 0 16 0;
#X connect 15 1 10 0;
#X connect 16 0 14 0;
#X connect 17 1 19 0;
#X connect 18 0 13 0;
#X connect 19 0 18 0;
#X restore 66 139 pd countrypopup;
#X obj 236 120 ../tn-hsl countrypopup;
#X msg 29 4 200;
#N canvas 579 437 587 466 zoompopup 0;
#X obj 37 18 inlet;
#X obj 320 97 soundfiler;
#X obj 320 49 loadbang;
#X obj 91 368 *~;
#X obj 91 402 throw~ left;
#X obj 203 402 throw~ right;
#X obj 203 373 *~;
#X obj 319 29 table zoompopup;
#X msg 320 74 read -resize ../corkpop.wav zoompopup;
#X obj 91 316 voicepoly 5 ../multiplay~ zoompopup;
#X obj 225 344 receive zoompopup;
#X obj 94 102 % 20;
#X obj 94 125 select 0;
#X msg 94 249 0 0.5;
#X obj 94 78 moses 1750;
#X obj 37 56 moses 1655;
#X connect 0 0 15 0;
#X connect 2 0 8 0;
#X connect 3 0 4 0;
#X connect 6 0 5 0;
#X connect 8 0 1 0;
#X connect 9 0 3 0;
#X connect 9 1 6 0;
#X connect 10 0 3 1;
#X connect 10 0 6 1;
#X connect 11 0 12 0;
#X connect 12 0 13 0;
#X connect 13 0 9 0;
#X connect 14 0 11 0;
#X connect 15 1 14 0;
#X restore 59 159 pd zoompopup;
#X obj 236 143 ../tn-hsl zoompopup;
#X msg 59 5 800;
#X obj 236 166 ../tn-hsl 60framerotate;
#N canvas 555 82 570 333 60framerotate 0;
#X obj 41 24 inlet;
#X obj 320 97 soundfiler;
#X obj 320 49 loadbang;
#X obj 42 236 *~;
#X obj 42 267 throw~ left;
#X obj 122 267 throw~ right;
#X obj 319 29 table 60framerotate;
#X obj 157 209 receive 60framerotate;
#X obj 122 236 *~;
#X obj 42 163 framesync/fstabplay~ 60framerotate 2310;
#X obj 122 183 framesync/fstabplay~ 60framerotate 2730;
#X msg 320 74 read -resize ../60framerotate.wav 60framerotate;
#X connect 2 0 11 0;
#X connect 3 0 4 0;
#X connect 7 0 3 1;
#X connect 7 0 8 1;
#X connect 8 0 5 0;
#X connect 9 0 3 0;
#X connect 10 0 8 0;
#X connect 11 0 1 0;
#X restore 41 180 pd 60framerotate;
#X obj 33 327 tgl 15 0 empty empty empty 17 7 0 10 -262144 -1 -1 0
1;
#N canvas 0 22 445 336 record 0;
#X obj 127 21 inlet;
#X obj 130 272 writesf~ 2;
#X msg 302 218 open \$1;
#X symbolatom 302 179 0 0 0 0 - - -;
#X obj 166 136 trigger anything bang;
#X msg 166 111 start;
#X msg 129 110 stop;
#X obj 129 82 select 0 1;
#N canvas 301 134 450 268 generate 0;
#X obj 36 19 inlet;
#X obj 31 216 outlet;
#X obj 37 47 trigger bang bang bang;
#X obj 196 74 zexy/time;
#X obj 101 74 hcs/ISOdate;
#X obj 31 131 zexy/makesymbol %s/TN_%s_%s.%s.%s.wav;
#X obj 31 103 pack symbol symbol float float float;
#X symbolatom 41 166 0 0 0 0 - - -;
#X msg 87 15 bang;
#X obj 10 75 ggee/getdir 4;
#X connect 0 0 2 0;
#X connect 2 0 9 0;
#X connect 2 1 4 0;
#X connect 2 2 3 0;
#X connect 3 0 6 2;
#X connect 3 1 6 3;
#X connect 3 2 6 4;
#X connect 4 0 6 1;
#X connect 5 0 1 0;
#X connect 5 0 7 0;
#X connect 6 0 5 0;
#X connect 8 0 9 0;
#X connect 9 0 6 0;
#X restore 302 158 pd generate filename;
#X obj 129 60 tgl 15 0 empty empty empty 17 7 0 10 -262144 -1 -1 0
1;
#X msg 309 137 bang;
#X obj 165 208 inlet~;
#X obj 214 208 inlet~;
#X connect 0 0 9 0;
#X connect 2 0 1 0;
#X connect 3 0 2 0;
#X connect 4 0 1 0;
#X connect 4 1 8 0;
#X connect 5 0 4 0;
#X connect 6 0 1 0;
#X connect 7 0 6 0;
#X connect 7 1 5 0;
#X connect 8 0 3 0;
#X connect 9 0 7 0;
#X connect 10 0 8 0;
#X connect 11 0 1 0;
#X connect 12 0 1 1;
#X restore 32 359 pd record everything;
#X obj 30 25 framesync/frameclock 4111;
#X obj 34 294 framesync/fsrecordctrl 4111;
#N canvas 180 321 606 416 30framerotate 0;
#X obj 90 10 inlet;
#X obj 310 87 soundfiler;
#X obj 310 39 loadbang;
#X obj 309 19 table 30framerotate;
#X msg 310 64 read -resize ../30framerotate.wav 30framerotate;
#X obj 52 226 *~;
#X obj 32 257 throw~ left;
#X obj 112 257 throw~ right;
#X obj 67 202 receive 30framerotate;
#X obj 53 173 framesync/fstabplay~ 30framerotate 690;
#X obj 43 153 framesync/fstabplay~ 30framerotate 3990;
#X connect 2 0 4 0;
#X connect 4 0 1 0;
#X connect 5 0 6 0;
#X connect 5 0 7 0;
#X connect 8 0 5 1;
#X connect 9 0 5 0;
#X connect 10 0 5 0;
#X restore 89 101 pd 30framerotate;
#X connect 4 0 3 0;
#X connect 4 0 20 1;
#X connect 5 0 3 1;
#X connect 5 0 20 2;
#X connect 13 0 21 0;
#X connect 16 0 21 0;
#X connect 19 0 20 0;
#X connect 21 0 23 0;
#X connect 21 0 9 0;
#X connect 21 0 11 0;
#X connect 21 0 14 0;
#X connect 21 0 18 0;
#X connect 21 0 22 0;
#X connect 22 0 19 0;
