#N canvas 274 187 472 401 10;
#X declare -path ..;
#X obj 347 24 pddp/dsp;
#X obj 235 7 ../mix-settings;
#X msg 29 4 444;
#X msg 59 5 5000;
#X obj 348 5 declare -path ..;
#X obj 30 25 framesync/frameclock 4111;
#X obj 40 359 dac~;
#X obj 27 319 catch~ left;
#X obj 101 319 catch~ right;
#X obj 236 51 ../tn-hsl clock/ticker;
#X obj 30 103 clock/ticker 100 500 30;
#X connect 2 0 5 0;
#X connect 3 0 5 0;
#X connect 5 0 10 0;
#X connect 7 0 6 0;
#X connect 8 0 6 1;
