#N canvas 176 74 621 393 10;
#X obj 55 22 inlet;
#X obj 293 25 table backgroundL;
#X obj 293 45 table backgroundR;
#X obj 294 112 soundfiler;
#X obj 294 64 loadbang;
#X msg 294 89 read -resize background.wav backgroundL backgroundR;
#X obj 127 296 receive background;
#X obj 55 357 throw~ left;
#X obj 55 337 *~;
#X obj 315 337 *~;
#X obj 315 357 throw~ right;
#X obj 55 308 *~;
#X obj 140 261 line~;
#X msg 140 241 \$1 30;
#X obj 55 153 framesync/fstablooper~ backgroundL 30 5763;
#X obj 120 179 framesync/fsline 30 60;
#X obj 150 220 mapping/reverse;
#X obj 315 308 *~;
#X obj 150 199 framesync/fsline 5730 5763;
#X obj 315 153 framesync/fstablooper~ backgroundR 30 5763;
#X connect 4 0 5 0;
#X connect 5 0 3 0;
#X connect 6 0 8 1;
#X connect 6 0 9 1;
#X connect 8 0 7 0;
#X connect 9 0 10 0;
#X connect 11 0 8 0;
#X connect 12 0 11 1;
#X connect 12 0 17 1;
#X connect 13 0 12 0;
#X connect 14 0 11 0;
#X connect 15 0 13 0;
#X connect 16 0 13 0;
#X connect 17 0 9 0;
#X connect 18 0 16 0;
#X connect 19 0 17 0;
