#N canvas 148 420 510 435 10;
#X obj 47 12 inlet~;
#X obj 47 403 outlet~;
#X obj 136 12 inlet;
#X text 174 15 frame;
#X obj 93 161 bang;
#X msg 93 181 0;
#X obj 136 50 moses \$1;
#X obj 138 181 syncline \$1 \$2;
#X obj 47 376 *~;
#X obj 181 71 moses \$2;
#X obj 233 160 bang;
#X msg 233 181 1;
#X obj 226 94 moses \$3;
#X obj 271 180 syncline \$3 \$4;
#X obj 271 115 moses \$4;
#X obj 271 201 mapping/reverse;
#X obj 223 12 inlet;
#X obj 263 12 inlet;
#X obj 303 12 inlet;
#X obj 343 12 inlet;
#X obj 62 354 line~;
#X obj 155 289 loadbang;
#X obj 62 331 pack float float;
#X obj 155 309 framesync/fps_ms;
#X connect 0 0 8 0;
#X connect 2 0 6 0;
#X connect 4 0 5 0;
#X connect 5 0 22 0;
#X connect 6 0 4 0;
#X connect 6 1 9 0;
#X connect 7 0 22 0;
#X connect 8 0 1 0;
#X connect 9 0 7 0;
#X connect 9 1 12 0;
#X connect 10 0 11 0;
#X connect 11 0 22 0;
#X connect 12 0 10 0;
#X connect 12 1 14 0;
#X connect 13 0 15 0;
#X connect 14 0 13 0;
#X connect 14 1 4 0;
#X connect 15 0 22 0;
#X connect 16 0 6 1;
#X connect 16 0 7 1;
#X connect 17 0 9 1;
#X connect 17 0 7 2;
#X connect 18 0 12 1;
#X connect 18 0 13 1;
#X connect 19 0 14 1;
#X connect 19 0 13 2;
#X connect 20 0 8 1;
#X connect 21 0 23 0;
#X connect 22 0 20 0;
#X connect 23 0 22 1;
