#N canvas 761 232 404 407 10;
#X obj 105 43 inlet;
#X text 143 46 frame;
#X obj 62 192 bang;
#X msg 62 212 0;
#X obj 105 81 moses \$1;
#X obj 107 212 syncline \$1 \$2;
#X obj 150 102 moses \$2;
#X obj 202 191 bang;
#X msg 202 212 1;
#X obj 195 125 moses \$3;
#X obj 240 211 syncline \$3 \$4;
#X obj 240 146 moses \$4;
#X obj 240 232 mapping/reverse;
#X obj 192 43 inlet;
#X obj 232 43 inlet;
#X obj 272 43 inlet;
#X obj 312 43 inlet;
#X obj 127 340 outlet;
#X connect 0 0 4 0;
#X connect 2 0 3 0;
#X connect 3 0 17 0;
#X connect 4 0 2 0;
#X connect 4 1 6 0;
#X connect 5 0 17 0;
#X connect 6 0 5 0;
#X connect 6 1 9 0;
#X connect 7 0 8 0;
#X connect 8 0 17 0;
#X connect 9 0 7 0;
#X connect 9 1 11 0;
#X connect 10 0 12 0;
#X connect 11 0 10 0;
#X connect 11 1 2 0;
#X connect 12 0 17 0;
#X connect 13 0 4 1;
#X connect 13 0 5 1;
#X connect 14 0 6 1;
#X connect 14 0 5 2;
#X connect 15 0 9 1;
#X connect 15 0 10 1;
#X connect 16 0 11 1;
#X connect 16 0 10 2;
