#N canvas 956 607 552 381 10;
#X declare -lib Gem;
#X obj 440 23 import Gem;
#X obj 69 175 pix_film;
#X obj 69 196 pix_texture;
#X obj 157 31 inlet;
#X obj 161 138 cyclone/prepend open;
#X obj 161 115 purepd/symbol_argument \$1;
#X obj 161 90 loadbang;
#X obj 252 256 gemwin;
#X obj 69 260 rectangle 16 9;
#X obj 69 32 gemhead;
#X msg 263 226 0 \, destroy;
#X floatatom 186 69 5 0 0 0 - - -;
#X obj 69 234 translateXYZ 0 0 -5;
#X msg 34 102 open exports.mov;
#X obj 176 48 netreceive 33333 1;
#X obj 22 61 loadbang;
#X msg 250 197 reset \, dimen 1280 720 \, offset -1280 -380 \, create
\, 1;
#X msg 22 83 open undervine.mov;
#X connect 1 0 2 0;
#X connect 2 0 12 0;
#X connect 3 0 1 1;
#X connect 4 0 1 0;
#X connect 5 0 4 0;
#X connect 6 0 5 0;
#X connect 9 0 1 0;
#X connect 10 0 7 0;
#X connect 12 0 8 0;
#X connect 13 0 1 0;
#X connect 14 0 11 0;
#X connect 14 0 1 1;
#X connect 15 0 17 0;
#X connect 16 0 7 0;
#X connect 17 0 1 0;
