#N canvas 1086 22 490 508 10;
#X obj 50 84 mtof;
#X obj 52 38 hsl 128 15 0 127 0 0 empty empty empty -2 -8 0 10 -262144
-1 -1 6400 1;
#X floatatom 50 58 5 0 0 0 - - -;
#X floatatom 48 18 5 0 0 0 - - -;
#X floatatom 54 108 5 0 0 0 - - -;
#X floatatom 239 63 5 0 0 0 - - -;
#X obj 247 133 hsl 128 15 0 127 0 0 empty empty empty -2 -8 0 10 -262144
-1 -1 0 1;
#X floatatom 245 153 5 0 0 0 - - -;
#X floatatom 243 113 5 0 0 0 - - -;
#X obj 239 89 ftom;
#X obj 25 223 pddp/pddplink http://tomscarff.110mb.com/midi_analyser/midi_note_frequency.htm
;
#X obj 59 354 mtof;
#X obj 61 286 hsl 128 15 0 127 0 0 empty empty empty -2 -8 0 10 -262144
-1 -1 0 1;
#X floatatom 59 306 5 0 0 0 - - -;
#X floatatom 57 266 5 0 0 0 - - -;
#X obj 67 398 hsl 128 15 0 127 0 0 empty empty empty -2 -8 0 10 -262144
-1 -1 0 1;
#X floatatom 65 418 5 0 0 0 - - -;
#X floatatom 63 378 5 0 0 0 - - -;
#X obj 56 332 - 45;
#X msg 68 439 set \$1;
#X msg 69 467 65.41;
#X msg 51 145 set \$1;
#X msg 52 173 329.628;
#X connect 0 0 4 0;
#X connect 1 0 2 0;
#X connect 2 0 0 0;
#X connect 3 0 1 0;
#X connect 4 0 21 0;
#X connect 5 0 9 0;
#X connect 6 0 7 0;
#X connect 8 0 6 0;
#X connect 9 0 8 0;
#X connect 11 0 17 0;
#X connect 12 0 13 0;
#X connect 13 0 18 0;
#X connect 14 0 12 0;
#X connect 15 0 16 0;
#X connect 16 0 19 0;
#X connect 17 0 15 0;
#X connect 18 0 11 0;
#X connect 19 0 20 0;
#X connect 21 0 22 0;
