#N canvas 227 322 332 221 10;
#N canvas 165 22 450 300 save 0;
#X msg 103 87 \; SSSAD_ADMIN save;
#X obj 11 11 bng 15 250 50 0 empty empty empty 17 7 0 10 -262144 -1
-1;
#X obj 190 253 textfile;
#X msg 237 89 clear;
#X obj 310 132 receive SSSAD_ADMIN;
#X obj 310 184 route persist;
#X obj 310 164 list trim;
#X obj 310 207 cyclone/prepend add;
#X obj 10 36 trigger bang bang bang bang;
#X obj 275 12 inlet;
#X msg 63 176 write \$1;
#X obj 63 152 symbol;
#X msg 284 79 \; SSSAD_ADMIN set;
#X obj 132 10 iemguts/savebangs;
#X connect 1 0 8 0;
#X connect 3 0 2 0;
#X connect 4 0 6 0;
#X connect 5 0 7 0;
#X connect 6 0 5 0;
#X connect 7 0 2 0;
#X connect 8 1 11 0;
#X connect 8 2 0 0;
#X connect 8 3 3 0;
#X connect 8 3 12 0;
#X connect 9 0 11 1;
#X connect 10 0 2 0;
#X connect 11 0 10 0;
#X connect 13 1 8 0;
#X coords 0 -1 1 1 105 17 1 10 10;
#X restore 100 157 pd save settings;
#N canvas 1003 335 450 300 load 0;
#X msg 24 86 \; SSSAD_ADMIN set;
#X obj 173 217 textfile;
#X obj 168 161 until;
#X obj 22 43 trigger bang bang bang;
#X obj 173 258 send SSSAD;
#X obj 11 11 bng 15 250 50 0 empty empty empty 17 7 0 10 -262144 -1
-1;
#X obj 257 8 inlet;
#X obj 220 117 symbol;
#X msg 220 141 read \$1 \, rewind;
#X obj 346 9 inlet;
#X connect 1 0 4 0;
#X connect 1 1 2 1;
#X connect 2 0 1 0;
#X connect 3 0 0 0;
#X connect 3 1 2 0;
#X connect 3 2 7 0;
#X connect 5 0 3 0;
#X connect 6 0 7 1;
#X connect 7 0 8 0;
#X connect 8 0 1 0;
#X connect 9 0 3 0;
#X coords 0 -1 1 1 105 17 1 10 10;
#X restore 100 140 pd load settings;
#X obj 74 72 ggee/getdir 1;
#X obj 74 93 makefilename %s/mix-settings.txt;
#X symbolatom 14 179 0 0 0 0 - - -;
#X obj 13 27 trigger bang bang;
#X obj 13 4 loadbang;
#X connect 2 0 3 0;
#X connect 3 0 4 0;
#X connect 3 0 1 0;
#X connect 3 0 0 0;
#X connect 5 0 1 1;
#X connect 5 1 2 0;
#X connect 6 0 5 0;
#X coords 0 -1 1 1 105 34 2 100 140;
