#N canvas 541 538 742 386 10;
#X declare -path ..;
#X obj 259 5 declare -path ..;
#X obj 139 353 dac~;
#X obj 125 235 voicepoly 50 noisen;
#X obj 446 123 random 100;
#X obj 446 146 + 50;
#X obj 367 123 random 400;
#X obj 525 131 random 10;
#X obj 525 153 / 9;
#X obj 207 284 hsl 128 15 0 1 0 0 empty empty empty -2 -8 0 10 -262144
-1 -1 6900 1;
#X obj 121 306 *~;
#X obj 163 307 *~;
#X obj 372 69 bng 15 250 50 0 empty empty empty 17 7 0 10 -262144 -1
-1;
#X msg 228 194 bang;
#X obj 363 199 pack float float float float;
#X obj 372 90 trigger bang bang bang bang;
#X obj 590 129 random 10;
#X obj 590 151 + 1;
#X obj 589 172 / 9;
#X obj 371 226 pddp/print;
#X obj 235 257 bng 15 250 50 0 empty empty empty 17 7 0 10 -262144
-1 -1;
#X obj 251 93 mapping/reverse;
#X obj 251 113 * 200;
#X obj 367 166 + 100;
#X obj 367 146 +;
#X obj 379 32 framesync/fsline 1681 4953;
#X floatatom 252 143 5 0 0 0 - - -;
#X connect 2 0 9 0;
#X connect 2 1 10 0;
#X connect 2 2 19 0;
#X connect 3 0 4 0;
#X connect 4 0 13 1;
#X connect 5 0 23 0;
#X connect 6 0 7 0;
#X connect 7 0 13 2;
#X connect 8 0 10 1;
#X connect 8 0 9 1;
#X connect 9 0 1 0;
#X connect 10 0 1 1;
#X connect 11 0 14 0;
#X connect 12 0 2 1;
#X connect 13 0 2 0;
#X connect 13 0 18 0;
#X connect 14 0 5 0;
#X connect 14 1 3 0;
#X connect 14 2 6 0;
#X connect 14 3 15 0;
#X connect 15 0 16 0;
#X connect 16 0 17 0;
#X connect 17 0 13 3;
#X connect 20 0 21 0;
#X connect 21 0 23 1;
#X connect 21 0 25 0;
#X connect 22 0 13 0;
#X connect 23 0 22 0;
#X connect 24 0 20 0;
