#N canvas 789 510 488 300 10;
#X obj 103 100 hsl 150 20 0.05 1.5 1 0 empty empty globerumble 10 10
0 10 -262144 -1 -1 12300 1;
#X floatatom 256 102 7 0 0 0 - - -;
#X obj 100 15 loadbang;
#X msg 100 61 label \$1;
#X obj 100 40 symbol \$1;
#X obj 100 236 send \$1;
#X obj -30 100 sssad/sssad \$1;
#X obj 302 100 tgl 20 0 empty empty MUTE 1 10 0 8 -233017 -33289 -33289
0 1;
#N canvas 524 22 450 300 color 0;
#X obj 149 22 inlet;
#X obj 153 269 outlet;
#X msg 146 220 color \$1 12 12;
#X obj 147 168 select 0 1;
#X msg 145 190 10;
#X msg 180 190 13;
#X obj 76 154 loadbang;
#X connect 0 0 3 0;
#X connect 2 0 1 0;
#X connect 3 0 4 0;
#X connect 3 1 5 0;
#X connect 4 0 2 0;
#X connect 5 0 2 0;
#X connect 6 0 4 0;
#X restore 331 102 pd color;
#X obj 100 207 float;
#X obj 145 163 select 0 1;
#X msg 160 209 0;
#X obj 302 15 receive SSSAD_ADMIN;
#X msg 302 77 0;
#X obj 302 37 route set;
#X obj 302 57 bang;
#X obj 339 77 receive TN_MUTE;
#X connect 0 0 1 0;
#X connect 0 0 6 1;
#X connect 0 0 9 0;
#X connect 2 0 4 0;
#X connect 3 0 0 0;
#X connect 4 0 3 0;
#X connect 6 0 0 0;
#X connect 7 0 8 0;
#X connect 7 0 10 0;
#X connect 8 0 7 0;
#X connect 9 0 5 0;
#X connect 10 0 9 0;
#X connect 10 1 11 0;
#X connect 11 0 5 0;
#X connect 12 0 14 0;
#X connect 13 0 7 0;
#X connect 14 0 15 0;
#X connect 15 0 13 0;
#X connect 16 0 7 0;
#X coords 0 -1 1 1 222 20 1 100 100;
