#N canvas 389 314 660 511 10;
#X floatatom 409 138 0 0 0 0 - - -;
#X obj 409 161 trigger bang float;
#X obj 255 235 biquad~;
#X obj 255 175 noise~;
#X obj 244 277 dac~;
#X obj 412 116 hsl 128 17 0 100 0 0 empty empty bandwidth 5 9 0 10
-261682 -1 -1 600 1;
#X obj 318 204 bandpass;
#X obj 298 22 hsl 128 15 0 127 0 0 empty empty empty -2 -8 0 10 -262144
-1 -1 3200 0;
#X obj 297 63 mtof;
#X obj 155 136 osc~;
#X obj 170 168 *~;
#X obj 194 135 osc~;
#X obj 153 110 / 2.5;
#X obj 108 138 osc~;
#X obj 66 133 osc~;
#X obj 90 163 *~;
#X obj 134 194 +~;
#X obj 66 107 mtof;
#X obj 108 106 mtof;
#X obj 65 84 + 7;
#X obj 296 84 trigger anything anything;
#X obj 108 83 + 3;
#X obj 196 215 *~ 0.001;
#X obj 356 122 / 8;
#X obj 297 124 pipe 10;
#X obj 297 43 max 30;
#X connect 0 0 1 0;
#X connect 1 0 6 0;
#X connect 1 1 6 1;
#X connect 2 0 4 1;
#X connect 2 0 4 0;
#X connect 3 0 2 0;
#X connect 5 0 0 0;
#X connect 6 0 2 0;
#X connect 7 0 19 0;
#X connect 7 0 21 0;
#X connect 7 0 25 0;
#X connect 8 0 11 0;
#X connect 8 0 12 0;
#X connect 8 0 20 0;
#X connect 9 0 10 0;
#X connect 10 0 16 1;
#X connect 11 0 10 1;
#X connect 12 0 9 0;
#X connect 13 0 15 1;
#X connect 14 0 15 0;
#X connect 15 0 16 0;
#X connect 16 0 22 0;
#X connect 17 0 14 0;
#X connect 18 0 13 0;
#X connect 19 0 17 0;
#X connect 20 0 24 0;
#X connect 20 1 23 0;
#X connect 21 0 18 0;
#X connect 22 0 4 0;
#X connect 22 0 4 1;
#X connect 23 0 6 0;
#X connect 24 0 6 0;
#X connect 25 0 8 0;
