#N canvas 770 395 493 473 10;
#X obj 49 77 noise~;
#X obj 45 347 pan/equal_power_pan~;
#X obj 47 9 inlet;
#X obj 261 7 inlet;
#X obj 316 380 outlet;
#X obj 160 381 outlet~;
#X obj 44 382 outlet~;
#X obj 56 219 +~;
#X obj 57 198 *~;
#X obj 57 134 osc~;
#X obj 109 74 unpack float float float float;
#X obj 46 321 *~;
#X msg 109 25 300 300 0.5 0.5;
#X obj 46 244 vcf~ 2;
#X obj 55 157 +~ 2;
#X obj 56 177 /~ 2;
#X obj 262 30 bang;
#X msg 194 49 0 0 0 0;
#X obj 56 114 / 2;
#X obj 61 300 line~;
#X obj 62 280 pack 0 1000;
#X connect 0 0 13 0;
#X connect 1 0 6 0;
#X connect 1 1 5 0;
#X connect 2 0 10 0;
#X connect 3 0 16 0;
#X connect 7 0 13 1;
#X connect 8 0 7 0;
#X connect 9 0 14 0;
#X connect 10 0 7 1;
#X connect 10 1 8 1;
#X connect 10 2 1 1;
#X connect 10 2 18 0;
#X connect 10 3 20 0;
#X connect 11 0 1 0;
#X connect 12 0 10 0;
#X connect 13 0 11 0;
#X connect 14 0 15 0;
#X connect 15 0 8 0;
#X connect 16 0 4 0;
#X connect 16 0 17 0;
#X connect 17 0 10 0;
#X connect 18 0 9 0;
#X connect 19 0 11 1;
#X connect 20 0 19 0;
