#N canvas 382 263 472 401 10;
#X declare -path ..;
#X obj 337 24 pddp/dsp;
#X obj 225 7 ../mix-settings;
#X obj 366 5 declare -path ..;
#X obj 162 358 dac~;
#X obj 79 315 catch~ left;
#X obj 153 315 catch~ right;
#X obj 236 51 ../tn-hsl clock/ticker;
#N canvas 131 90 450 300 init 0;
#X obj 35 36 loadbang;
#X obj 35 87 send pd;
#X msg 35 64 audio-dialog 0 0 0 0 2 0 0 0 0 0 0 0 2 0 0 0 48000 20
0;
#X connect 0 0 2 0;
#X connect 2 0 1 0;
#X restore 420 24 pd init;
#N canvas 116 286 505 435 latitudetinks 0;
#X obj 111 32 inlet;
#X obj 303 374 *~;
#X obj 303 397 throw~ left;
#X obj 329 84 soundfiler;
#X obj 329 36 loadbang;
#X obj 328 16 table tink;
#X msg 329 61 read -resize tink.wav tink;
#X obj 318 350 receive latitudetinks;
#X obj 96 375 *~;
#X obj 96 398 throw~ left;
#X obj 111 351 receive latitudetinks;
#X obj 27 202 framesync/fstabplay~ tink 541;
#X obj 37 222 framesync/fstabplay~ tink 542;
#X obj 47 242 framesync/fstabplay~ tink 542;
#X obj 67 262 framesync/fstabplay~ tink 544;
#X obj 77 282 framesync/fstabplay~ tink 546;
#X obj 86 302 framesync/fstabplay~ tink 547;
#X obj 97 322 framesync/fstabplay~ tink 548;
#X obj 224 180 framesync/fstabplay~ tink 550;
#X obj 234 201 framesync/fstabplay~ tink 551;
#X obj 244 221 framesync/fstabplay~ tink 552;
#X obj 254 241 framesync/fstabplay~ tink 553;
#X obj 274 261 framesync/fstabplay~ tink 554;
#X obj 284 281 framesync/fstabplay~ tink 555;
#X obj 293 301 framesync/fstabplay~ tink 556;
#X obj 304 321 framesync/fstabplay~ tink 559;
#X obj 17 182 framesync/fstabplay~ tink 540;
#X connect 1 0 2 0;
#X connect 4 0 6 0;
#X connect 6 0 3 0;
#X connect 7 0 1 1;
#X connect 8 0 9 0;
#X connect 10 0 8 1;
#X connect 11 0 8 0;
#X connect 12 0 8 0;
#X connect 13 0 8 0;
#X connect 14 0 8 0;
#X connect 15 0 8 0;
#X connect 16 0 8 0;
#X connect 17 0 8 0;
#X connect 18 0 1 0;
#X connect 19 0 1 0;
#X connect 20 0 1 0;
#X connect 21 0 1 0;
#X connect 22 0 1 0;
#X connect 23 0 1 0;
#X connect 24 0 1 0;
#X connect 25 0 1 0;
#X connect 26 0 8 0;
#X restore 67 142 pd latitudetinks;
#X obj 236 97 ../tn-hsl latitudetinks;
#N canvas 579 437 587 466 zoompopup 0;
#X obj 37 18 inlet;
#X obj 320 97 soundfiler;
#X obj 320 49 loadbang;
#X obj 35 314 *~;
#X obj 35 348 throw~ left;
#X obj 147 348 throw~ right;
#X obj 147 319 *~;
#X obj 319 29 table zoompopup;
#X msg 320 74 read -resize ../corkpop.wav zoompopup;
#X obj 35 262 voicepoly 5 ../multiplay~ zoompopup;
#X obj 169 290 receive zoompopup;
#X obj 38 111 select 0;
#X msg 38 195 0 0.5;
#X obj 38 73 framesync/rangemod 791 1080 30;
#X connect 0 0 13 0;
#X connect 2 0 8 0;
#X connect 3 0 4 0;
#X connect 6 0 5 0;
#X connect 8 0 1 0;
#X connect 9 0 3 0;
#X connect 9 1 6 0;
#X connect 10 0 3 1;
#X connect 10 0 6 1;
#X connect 11 0 12 0;
#X connect 12 0 9 0;
#X connect 13 0 11 0;
#X restore 58 163 pd zoompopup;
#X obj 236 120 ../tn-hsl zoompopup;
#X obj 236 143 ../tn-hsl 2secrotate;
#X obj 33 327 tgl 15 0 empty empty empty 17 7 0 10 -262144 -1 -1 0
1;
#N canvas 0 22 445 336 record 0;
#X obj 127 21 inlet;
#X obj 130 272 writesf~ 2;
#X msg 302 218 open \$1;
#X symbolatom 302 179 0 0 0 0 - - -;
#X obj 166 136 trigger anything bang;
#X msg 166 111 start;
#X msg 129 110 stop;
#X obj 129 82 select 0 1;
#N canvas 301 134 450 268 generate 0;
#X obj 36 19 inlet;
#X obj 31 216 outlet;
#X obj 37 47 trigger bang bang bang;
#X obj 196 74 zexy/time;
#X obj 101 74 hcs/ISOdate;
#X obj 31 131 zexy/makesymbol %s/TN_%s_%s.%s.%s.wav;
#X obj 31 103 pack symbol symbol float float float;
#X symbolatom 41 166 0 0 0 0 - - -;
#X msg 87 15 bang;
#X obj 10 75 ggee/getdir 4;
#X connect 0 0 2 0;
#X connect 2 0 9 0;
#X connect 2 1 4 0;
#X connect 2 2 3 0;
#X connect 3 0 6 2;
#X connect 3 1 6 3;
#X connect 3 2 6 4;
#X connect 4 0 6 1;
#X connect 5 0 1 0;
#X connect 5 0 7 0;
#X connect 6 0 5 0;
#X connect 8 0 9 0;
#X connect 9 0 6 0;
#X restore 302 158 pd generate filename;
#X obj 129 60 tgl 15 0 empty empty empty 17 7 0 10 -262144 -1 -1 0
1;
#X msg 309 137 bang;
#X obj 165 208 inlet~;
#X obj 214 208 inlet~;
#X connect 0 0 9 0;
#X connect 2 0 1 0;
#X connect 3 0 2 0;
#X connect 4 0 1 0;
#X connect 4 1 8 0;
#X connect 5 0 4 0;
#X connect 6 0 1 0;
#X connect 7 0 6 0;
#X connect 7 1 5 0;
#X connect 8 0 3 0;
#X connect 9 0 7 0;
#X connect 10 0 8 0;
#X connect 11 0 1 0;
#X connect 12 0 1 1;
#X restore 32 359 pd record everything;
#X obj 30 25 framesync/frameclock 2461;
#X obj 34 294 framesync/fsrecordctrl 2461;
#X obj 69 99 clock/ticker 1181 2175 26;
#N canvas 585 345 625 360 stretch 0;
#X obj 88 7 inlet;
#X obj 320 207 soundfiler;
#X obj 320 119 loadbang;
#X obj 52 272 *~;
#X obj 32 303 throw~ left;
#X obj 112 303 throw~ right;
#X obj 67 248 receive stretch;
#X obj 319 29 table stretch1;
#X obj 319 49 table stretch2;
#X obj 319 69 table stretch3;
#X msg 320 144 read -resize stretch1.wav stretch1;
#X msg 340 184 read -resize stretch3.wav stretch3;
#X msg 330 164 read -resize stretch2.wav stretch2;
#X obj 49 140 framesync/fstabplay~ stretch3 1423;
#X obj 39 121 framesync/fstabplay~ stretch2 1261;
#X obj 29 101 framesync/fstabplay~ stretch1 1151;
#X obj 78 203 framesync/fstabplay~ tink 1438;
#X obj 68 184 framesync/fstabplay~ tink 1282;
#X obj 58 164 framesync/fstabplay~ tink 1195;
#X connect 2 0 10 0;
#X connect 2 0 12 0;
#X connect 2 0 11 0;
#X connect 3 0 4 0;
#X connect 3 0 5 0;
#X connect 6 0 3 1;
#X connect 10 0 1 0;
#X connect 11 0 1 0;
#X connect 12 0 1 0;
#X connect 13 0 3 0;
#X connect 14 0 3 0;
#X connect 15 0 3 0;
#X connect 16 0 3 0;
#X connect 17 0 3 0;
#X connect 18 0 3 0;
#X restore 49 183 pd stretch;
#X obj 236 166 ../tn-hsl stretch;
#N canvas 180 321 606 416 60framerotate 0;
#X obj 90 10 inlet;
#X obj 310 87 soundfiler;
#X obj 310 39 loadbang;
#X obj 52 226 *~;
#X obj 32 257 throw~ left;
#X obj 112 257 throw~ right;
#X obj 309 19 table 60framerotate;
#X msg 310 64 read -resize ../60framerotate.wav 60framerotate;
#X obj 53 173 framesync/fstabplay~ 60framerotate 430;
#X obj 67 202 receive 60framerotate;
#X obj 43 153 framesync/fstabplay~ 60framerotate 2259;
#X connect 2 0 7 0;
#X connect 3 0 4 0;
#X connect 3 0 5 0;
#X connect 7 0 1 0;
#X connect 8 0 3 0;
#X connect 9 0 3 1;
#X connect 10 0 3 0;
#X restore 81 123 pd 60framerotate;
#X obj 236 74 ../tn-hsl 60framerotate;
#X msg 59 5 1111;
#N canvas 0 22 613 368 growing 0;
#X obj 79 30 inlet;
#X obj 255 314 *~;
#X obj 48 315 *~;
#X obj 48 338 throw~ left;
#X obj 255 337 throw~ right;
#X obj 270 290 receive growing;
#X obj 314 122 soundfiler;
#X obj 314 74 loadbang;
#X obj 313 34 table growingL;
#X obj 313 54 table growingR;
#X msg 314 99 read -resize ../shimmer.wav growingL growingR;
#X obj 94 157 mapping/reverse;
#X text 409 72 610-649-794-820;
#X obj 94 123 framesync/fsline 794 820;
#X obj 82 102 framesync/fsline 610 649;
#X obj 48 232 framesync/fstabplay~ growingL 610;
#X obj 255 231 framesync/fstabplay~ growingR 610;
#X obj 255 271 *~;
#X obj 48 272 *~;
#X obj 82 183 float;
#X floatatom 137 187 5 0 0 0 - - -;
#X connect 1 0 4 0;
#X connect 2 0 3 0;
#X connect 5 0 1 1;
#X connect 5 0 2 1;
#X connect 7 0 10 0;
#X connect 10 0 6 0;
#X connect 11 0 19 0;
#X connect 13 0 11 0;
#X connect 14 0 19 0;
#X connect 15 0 18 0;
#X connect 16 0 17 0;
#X connect 17 0 1 0;
#X connect 18 0 2 0;
#X connect 19 0 17 1;
#X connect 19 0 18 1;
#X connect 19 0 20 0;
#X restore 43 206 pd growing;
#X obj 236 189 ../tn-hsl growing;
#X msg 29 4 600;
#X connect 4 0 3 0;
#X connect 4 0 14 1;
#X connect 5 0 3 1;
#X connect 5 0 14 2;
#X connect 13 0 14 0;
#X connect 15 0 20 0;
#X connect 15 0 8 0;
#X connect 15 0 10 0;
#X connect 15 0 16 0;
#X connect 15 0 17 0;
#X connect 15 0 18 0;
#X connect 15 0 23 0;
#X connect 16 0 13 0;
#X connect 22 0 15 0;
#X connect 25 0 15 0;
