#N canvas 652 363 591 534 10;
#X obj 74 114 textfile;
#X obj 66 176 unpack float float float;
#X msg 126 56 read bottles.txt cr \, rewind;
#X obj 207 197 / 100;
#X obj 142 233 *;
#X floatatom 142 256 5 0 0 0 - - -;
#X obj 267 352 tolist;
#X obj 107 86 trigger anything bang;
#X obj 301 325 bng 15 250 50 0 empty empty empty 17 7 0 10 -262144
-1 -1;
#X msg 64 19 bang;
#X obj 122 366 mtof;
#X obj 104 429 osc~;
#X obj 154 456 *~;
#X obj 145 477 dac~;
#X obj 168 350 bng 15 250 50 0 empty empty empty 17 7 0 10 -262144
-1 -1;
#X obj 74 137 trigger bang anything;
#X obj 125 314 + 0.5;
#X obj 125 334 int;
#X obj 131 289 + 25;
#X obj 104 408 line~;
#X obj 169 430 cyclone/Line~;
#X msg 105 387 \$1 200;
#X msg 169 366 0 \, 1 200 0 300;
#X obj 264 431 prepend set;
#X obj 273 115 pddp/print;
#X msg 294 214 50;
#X msg 203 490 65 67 68 69 69 68 70 69 69 70 70 69 71 69 68 68 68 71
70 69 67 67 66 68 69 68 68 71 69 70 71 72 71 72 74 76 74 73 74;
#X obj 279 313 bng 15 250 50 0 empty empty empty 17 7 0 10 -262144
-1 -1;
#X obj 55 275 / 2;
#X floatatom 59 363 5 0 0 0 - - -;
#X obj 19 84 delay 500;
#X obj 57 296 + 52;
#X connect 0 0 15 0;
#X connect 0 0 24 0;
#X connect 0 1 2 0;
#X connect 1 1 4 0;
#X connect 1 2 3 0;
#X connect 2 0 7 0;
#X connect 3 0 4 1;
#X connect 4 0 5 0;
#X connect 4 0 28 0;
#X connect 6 0 23 0;
#X connect 7 0 0 0;
#X connect 7 1 6 0;
#X connect 7 1 25 0;
#X connect 8 0 6 1;
#X connect 9 0 30 0;
#X connect 10 0 21 0;
#X connect 11 0 12 0;
#X connect 12 0 13 0;
#X connect 12 0 13 1;
#X connect 14 0 22 0;
#X connect 15 0 30 0;
#X connect 15 1 1 0;
#X connect 16 0 17 0;
#X connect 17 0 10 0;
#X connect 17 0 14 0;
#X connect 17 0 29 0;
#X connect 17 0 6 0;
#X connect 18 0 16 0;
#X connect 19 0 11 0;
#X connect 20 0 12 1;
#X connect 21 0 19 0;
#X connect 22 0 20 0;
#X connect 23 0 26 0;
#X connect 25 0 19 0;
#X connect 27 0 6 0;
#X connect 28 0 31 0;
#X connect 30 0 0 0;
#X connect 31 0 16 0;
