#N canvas 495 22 472 700 10;
#X declare -path ..;
#X obj 337 24 pddp/dsp;
#X obj 225 7 ../mix-settings;
#X obj 336 5 declare -path ..;
#X obj 144 678 dac~;
#X obj 59 654 catch~ left;
#X obj 133 654 catch~ right;
#N canvas 131 90 450 300 init 0;
#X obj 35 36 loadbang;
#X obj 35 87 send pd;
#X msg 35 64 audio-dialog 0 0 0 0 2 0 0 0 0 0 0 0 2 0 0 0 48000 20
0;
#X connect 0 0 2 0;
#X connect 2 0 1 0;
#X restore 174 5 pd init;
#N canvas 116 286 505 435 latitudetinks 0;
#X obj 111 32 inlet;
#X obj 303 374 *~;
#X obj 303 397 throw~ left;
#X obj 329 84 soundfiler;
#X obj 329 36 loadbang;
#X obj 328 16 table tink;
#X msg 329 61 read -resize tink.wav tink;
#X obj 318 350 receive latitudetinks;
#X obj 96 375 *~;
#X obj 96 398 throw~ left;
#X obj 111 351 receive latitudetinks;
#X obj 224 170 framesync/fstabplay~ tink 868;
#X obj 17 172 framesync/fstabplay~ tink 862;
#X obj 27 192 framesync/fstabplay~ tink 866;
#X obj 37 212 framesync/fstabplay~ tink 866;
#X obj 47 232 framesync/fstabplay~ tink 866;
#X obj 67 252 framesync/fstabplay~ tink 867;
#X obj 77 272 framesync/fstabplay~ tink 867;
#X obj 86 292 framesync/fstabplay~ tink 867;
#X obj 97 312 framesync/fstabplay~ tink 868;
#X obj 234 191 framesync/fstabplay~ tink 870;
#X obj 244 211 framesync/fstabplay~ tink 870;
#X obj 254 231 framesync/fstabplay~ tink 872;
#X obj 274 251 framesync/fstabplay~ tink 873;
#X obj 284 271 framesync/fstabplay~ tink 874;
#X obj 293 291 framesync/fstabplay~ tink 875;
#X obj 304 311 framesync/fstabplay~ tink 877;
#X obj 314 331 framesync/fstabplay~ tink 878;
#X connect 1 0 2 0;
#X connect 4 0 6 0;
#X connect 6 0 3 0;
#X connect 7 0 1 1;
#X connect 8 0 9 0;
#X connect 10 0 8 1;
#X connect 11 0 1 0;
#X connect 12 0 8 0;
#X connect 13 0 8 0;
#X connect 14 0 8 0;
#X connect 15 0 8 0;
#X connect 16 0 8 0;
#X connect 17 0 8 0;
#X connect 18 0 8 0;
#X connect 19 0 8 0;
#X connect 20 0 1 0;
#X connect 21 0 1 0;
#X connect 22 0 1 0;
#X connect 23 0 1 0;
#X connect 24 0 1 0;
#X connect 25 0 1 0;
#X connect 26 0 1 0;
#X connect 27 0 1 0;
#X restore 132 136 pd latitudetinks;
#X obj 236 97 ../tn-hsl latitudetinks;
#N canvas 511 421 587 466 countrypopup 0;
#X obj 37 18 inlet;
#X obj 320 97 soundfiler;
#X obj 320 49 loadbang;
#X obj 89 368 *~;
#X obj 89 402 throw~ left;
#X obj 201 402 throw~ right;
#X obj 201 373 *~;
#X obj 223 343 receive countrypopup;
#X obj 319 29 table countrypopup;
#X msg 320 74 read -resize ../corkpop.wav countrypopup;
#X obj 182 202 random 5;
#X obj 182 223 / 5;
#X obj 89 316 voicepoly 5 ../multiplay~ countrypopup;
#X obj 89 144 select 0;
#X obj 89 246 pack float float;
#X obj 89 179 trigger bang bang;
#X obj 89 222 random 200;
#X obj 37 56 moses 700;
#X obj 89 77 moses 770;
#X obj 104 101 random 9;
#X obj 89 121 %;
#X connect 0 0 17 0;
#X connect 2 0 9 0;
#X connect 3 0 4 0;
#X connect 6 0 5 0;
#X connect 7 0 3 1;
#X connect 7 0 6 1;
#X connect 9 0 1 0;
#X connect 10 0 11 0;
#X connect 11 0 14 1;
#X connect 12 0 3 0;
#X connect 12 1 6 0;
#X connect 13 0 15 0;
#X connect 14 0 12 0;
#X connect 15 0 16 0;
#X connect 15 1 10 0;
#X connect 15 1 19 0;
#X connect 16 0 14 0;
#X connect 17 1 18 0;
#X connect 18 0 20 0;
#X connect 19 0 20 1;
#X connect 20 0 13 0;
#X restore 128 156 pd countrypopup;
#X obj 236 120 ../tn-hsl countrypopup;
#X obj 14 656 tgl 15 0 empty empty empty 17 7 0 10 -262144 -1 -1 0
1;
#N canvas 0 22 445 336 record 0;
#X obj 127 21 inlet;
#X obj 130 272 writesf~ 2;
#X msg 302 218 open \$1;
#X symbolatom 302 179 0 0 0 0 - - -;
#X obj 166 136 trigger anything bang;
#X msg 166 111 start;
#X msg 129 110 stop;
#X obj 129 82 select 0 1;
#N canvas 301 134 450 268 generate 0;
#X obj 36 19 inlet;
#X obj 31 216 outlet;
#X obj 37 47 trigger bang bang bang;
#X obj 196 74 zexy/time;
#X obj 101 74 hcs/ISOdate;
#X obj 31 131 zexy/makesymbol %s/TN_%s_%s.%s.%s.wav;
#X obj 31 103 pack symbol symbol float float float;
#X symbolatom 41 166 0 0 0 0 - - -;
#X msg 87 15 bang;
#X obj 10 75 ggee/getdir 4;
#X connect 0 0 2 0;
#X connect 2 0 9 0;
#X connect 2 1 4 0;
#X connect 2 2 3 0;
#X connect 3 0 6 2;
#X connect 3 1 6 3;
#X connect 3 2 6 4;
#X connect 4 0 6 1;
#X connect 5 0 1 0;
#X connect 5 0 7 0;
#X connect 6 0 5 0;
#X connect 8 0 9 0;
#X connect 9 0 6 0;
#X restore 302 158 pd generate filename;
#X obj 129 60 tgl 15 0 empty empty empty 17 7 0 10 -262144 -1 -1 0
1;
#X msg 309 137 bang;
#X obj 165 208 inlet~;
#X obj 214 208 inlet~;
#X connect 0 0 9 0;
#X connect 2 0 1 0;
#X connect 3 0 2 0;
#X connect 4 0 1 0;
#X connect 4 1 8 0;
#X connect 5 0 4 0;
#X connect 6 0 1 0;
#X connect 7 0 6 0;
#X connect 7 1 5 0;
#X connect 8 0 3 0;
#X connect 9 0 7 0;
#X connect 10 0 8 0;
#X connect 11 0 1 0;
#X connect 12 0 1 1;
#X restore 14 679 pd record everything;
#N canvas 395 214 436 381 countrywinesing 0;
#X obj 41 24 inlet;
#X obj 53 333 throw~ left;
#X obj 133 333 throw~ right;
#X obj 90 274 *~;
#X text 271 115 france;
#X text 326 176 germany;
#X text 287 135 italy;
#X text 312 156 spain;
#X text 333 198 portugal;
#X obj 115 74 soundfiler;
#X obj 115 26 loadbang;
#X obj 125 247 receive countrywinesing;
#X obj 114 6 table countrywinesing;
#X obj 34 137 framesync/fstabplay~ countrywinesing 188;
#X obj 50 157 framesync/fstabplay~ countrywinesing 198;
#X obj 64 177 framesync/fstabplay~ countrywinesing 209;
#X obj 76 200 framesync/fstabplay~ countrywinesing 233;
#X msg 115 51 read -resize ../30framerotate.wav countrywinesing;
#X obj 19 117 framesync/fstabplay~ countrywinesing 121;
#X connect 3 0 2 0;
#X connect 3 0 1 0;
#X connect 10 0 17 0;
#X connect 11 0 3 1;
#X connect 13 0 3 0;
#X connect 14 0 3 0;
#X connect 15 0 3 0;
#X connect 16 0 3 0;
#X connect 17 0 9 0;
#X connect 18 0 3 0;
#X restore 117 197 pd countrywinesing;
#N canvas 323 285 450 300 shimmeringfields 0;
#X obj 26 5 inlet;
#X obj 130 242 *~;
#X obj 42 277 throw~ left;
#X obj 162 277 throw~ right;
#X obj 145 217 receive shimmeringfields;
#X obj 130 195 *~;
#X obj 61 171 line~;
#X obj 60 149 pack 0 0;
#X obj 105 126 framesync/fps_ms;
#X obj 105 106 loadbang;
#X obj 145 155 framesync/fsfilelooper~ ../shimmer.wav 1700 2740;
#X obj 49 35 framesync/fsline 1700 2040;
#X obj 59 55 framesync/fsline 2630 2740;
#X obj 59 75 mapping/reverse;
#X connect 1 0 3 0;
#X connect 1 0 2 0;
#X connect 4 0 1 1;
#X connect 5 0 1 0;
#X connect 6 0 5 0;
#X connect 7 0 6 0;
#X connect 8 0 7 1;
#X connect 9 0 8 0;
#X connect 10 0 5 1;
#X connect 11 0 7 0;
#X connect 12 0 13 0;
#X connect 13 0 7 0;
#X restore 112 218 pd shimmeringfields;
#X obj 236 212 ../tn-hsl shimmeringfields;
#X obj 236 235 ../tn-hsl counters;
#X obj 236 74 ../tn-hsl winningping;
#N canvas 0 22 535 358 winningping 0;
#X obj 36 15 inlet;
#X obj 137 137 *~;
#X obj 49 192 throw~ left;
#X obj 169 192 throw~ right;
#X obj 152 113 receive winningping;
#X obj 137 90 framesync/fsreadsf~ winningping.wav 63;
#X connect 1 0 3 0;
#X connect 1 0 2 0;
#X connect 4 0 1 1;
#X connect 5 0 1 0;
#X restore 137 116 pd winningping;
#N canvas 584 132 594 330 90framerotate 0;
#X obj 41 24 inlet;
#X obj 289 61 soundfiler;
#X obj 289 13 loadbang;
#X obj 51 261 throw~ left;
#X obj 131 261 throw~ right;
#X obj 71 224 *~;
#X obj 100 226 *~;
#X obj 135 199 receive 90framerotate;
#X obj 288 -7 table 90framerotate;
#X msg 289 38 read -resize ../90framerotate.wav 90framerotate;
#X obj 71 121 framesync/fstabplay~ 90framerotate 1202;
#X obj 100 143 framesync/fstabplay~ 90framerotate 1593;
#X obj 109 170 framesync/fstabplay~ 90framerotate 7958;
#X connect 2 0 9 0;
#X connect 5 0 3 0;
#X connect 6 0 4 0;
#X connect 7 0 5 1;
#X connect 7 0 6 1;
#X connect 9 0 1 0;
#X connect 10 0 5 0;
#X connect 11 0 6 0;
#X connect 12 0 6 0;
#X connect 12 0 5 0;
#X restore 124 176 pd 90framerotate;
#X obj 236 143 ../tn-hsl 90framerotate;
#X obj 236 51 ../tn-hsl background;
#N canvas 496 99 450 300 (subpatch) 0;
#X obj 100 100 tgl 25 0 TN_MUTE TN_MUTE_RECEIVE MUTE 1 13 0 10 -233017
-33289 -33289 0 1;
#N canvas 524 22 450 300 color 0;
#X obj 149 22 inlet;
#X obj 153 269 outlet;
#X msg 146 220 color \$1 12 12;
#X obj 147 168 select 0 1;
#X msg 145 190 10;
#X msg 180 190 13;
#X obj 76 154 loadbang;
#X connect 0 0 3 0;
#X connect 2 0 1 0;
#X connect 3 0 4 0;
#X connect 3 1 5 0;
#X connect 4 0 2 0;
#X connect 5 0 2 0;
#X connect 6 0 4 0;
#X restore 128 104 pd color;
#X connect 0 0 1 0;
#X connect 1 0 0 0;
#X coords 0 -1 1 1 25 25 1 100 100;
#X restore 436 23 pd;
#N canvas 787 281 625 426 background 0;
#X obj 65 32 inlet;
#X obj 303 35 table backgroundL;
#X obj 303 55 table backgroundR;
#X obj 304 122 soundfiler;
#X obj 304 74 loadbang;
#X msg 304 99 read -resize background.wav backgroundL backgroundR;
#X obj 180 320 receive background;
#X obj 65 367 throw~ left;
#X obj 65 347 *~;
#X obj 325 347 *~;
#X obj 325 367 throw~ right;
#X obj 140 236 mapping/reverse;
#X obj 65 163 framesync/fstablooper~ backgroundL 0 8409;
#X obj 325 163 framesync/fstablooper~ backgroundR 1 8409;
#X obj 140 216 ../fadeinout 1700 2040 2630 2740;
#X obj 65 298 *~;
#X obj 325 298 *~;
#X obj 140 257 pack 0 33;
#X obj 140 277 line~;
#X connect 0 0 14 0;
#X connect 4 0 5 0;
#X connect 5 0 3 0;
#X connect 6 0 8 1;
#X connect 6 0 9 1;
#X connect 8 0 7 0;
#X connect 9 0 10 0;
#X connect 11 0 17 0;
#X connect 12 0 15 0;
#X connect 13 0 16 0;
#X connect 14 0 11 0;
#X connect 15 0 8 0;
#X connect 16 0 9 0;
#X connect 17 0 18 0;
#X connect 18 0 15 1;
#X connect 18 0 16 1;
#X restore 138 96 pd background;
#N canvas 27 136 1152 629 all 0;
#X obj 46 10 inlet;
#X obj 29 176 throw~ left;
#X text 44 129 UNITED STATES;
#X obj 141 107 loadbang;
#X obj 39 416 throw~ left;
#X obj 151 347 loadbang;
#X obj 279 176 throw~ left;
#X obj 391 107 loadbang;
#X obj 279 416 throw~ left;
#X obj 391 347 loadbang;
#X obj 651 127 loadbang;
#X obj 539 196 *~ 0.5;
#X obj 539 230 throw~ left;
#X obj 619 230 throw~ right;
#X obj 891 297 loadbang;
#X text 794 319 AUSTRALIA;
#X obj 779 366 throw~ right;
#X text 554 149 SOUTH AFRICA;
#X text 294 369 ARGENTINA;
#X text 54 369 CHILE;
#X text 294 129 CANADA;
#X obj 31 255 throw~ left;
#X obj 31 231 *~ 0.7;
#X obj 765 459 throw~ right;
#X obj 765 435 *~ 0.4;
#X obj 279 151 counternode-bin~ 12;
#X obj 917 83 loadbang;
#X obj 805 152 throw~ right;
#X text 820 105 CHINA;
#X obj 274 258 throw~ left;
#X obj 274 234 *~ 0.7;
#X obj 40 495 throw~ left;
#X obj 40 471 *~ 0.7;
#X obj 283 498 throw~ left;
#X obj 283 474 *~ 0.7;
#X obj 809 246 throw~ right;
#X obj 809 222 *~ 0.4;
#X obj 535 315 throw~ right;
#X obj 535 291 *~ 0.4;
#X msg 917 104 2343 2462 1500;
#X obj 809 195 framesync/fsreadsf~ filling.wav 2343;
#X obj 274 207 framesync/fsreadsf~ filling.wav 2323;
#X msg 391 128 2323 2442 50;
#X msg 651 148 2283 2402 1026;
#X obj 535 264 framesync/fsreadsf~ filling.wav 2283;
#X msg 891 318 2263 2382 1245;
#X msg 151 368 2303 2422 850;
#X msg 391 368 2243 2362 1520;
#X msg 141 128 2223 2342 2300;
#X obj 31 204 framesync/fsreadsf~ filling.wav 2223;
#X obj 40 444 framesync/fsreadsf~ filling2.wav 2303;
#X obj 283 447 framesync/fsreadsf~ filling2.wav 2243;
#X obj 765 408 framesync/fsreadsf~ filling.wav 2263;
#X obj 30 151 counternode-bin~ 12;
#X obj 39 391 counternode-bin~ 12;
#X obj 279 391 counternode-bin~ 12;
#X obj 539 171 counternode-bin~ 12;
#X obj 779 341 counternode-bin~ 12;
#X obj 805 127 counternode-bin~ 12;
#X connect 0 0 25 0;
#X connect 0 0 53 0;
#X connect 0 0 54 0;
#X connect 0 0 55 0;
#X connect 0 0 56 0;
#X connect 0 0 57 0;
#X connect 0 0 58 0;
#X connect 3 0 48 0;
#X connect 5 0 46 0;
#X connect 7 0 42 0;
#X connect 9 0 47 0;
#X connect 10 0 43 0;
#X connect 11 0 12 0;
#X connect 11 0 13 0;
#X connect 14 0 45 0;
#X connect 22 0 21 0;
#X connect 24 0 23 0;
#X connect 25 0 6 0;
#X connect 26 0 39 0;
#X connect 30 0 29 0;
#X connect 32 0 31 0;
#X connect 34 0 33 0;
#X connect 36 0 35 0;
#X connect 38 0 37 0;
#X connect 39 0 58 1;
#X connect 40 0 36 0;
#X connect 41 0 30 0;
#X connect 42 0 25 1;
#X connect 43 0 56 1;
#X connect 44 0 38 0;
#X connect 45 0 57 1;
#X connect 46 0 54 1;
#X connect 47 0 55 1;
#X connect 48 0 53 1;
#X connect 49 0 22 0;
#X connect 50 0 32 0;
#X connect 51 0 34 0;
#X connect 52 0 24 0;
#X connect 53 0 1 0;
#X connect 54 0 4 0;
#X connect 55 0 8 0;
#X connect 56 0 11 0;
#X connect 57 0 16 0;
#X connect 58 0 27 0;
#X restore 94 282 pd all counters;
#N canvas 27 136 1152 629 oldworld 0;
#X obj 46 10 inlet;
#N canvas 380 576 505 307 load 0;
#X obj 92 252 soundfiler;
#X obj 86 7 loadbang;
#X obj 92 201 pack symbol symbol;
#X obj 27 165 makefilename counter%d.wav;
#X obj 86 107 float;
#X obj 124 107 + 1;
#X obj 86 131 trigger float float;
#X obj 375 32 table counter-0;
#X obj 375 52 table counter-1;
#X obj 375 73 table counter-2;
#X obj 375 92 table counter-3;
#X obj 375 112 table counter-4;
#X obj 375 132 table counter-5;
#X obj 375 152 table counter-6;
#X obj 375 172 table counter-7;
#X obj 375 192 table counter-8;
#X obj 86 76 until;
#X msg 86 27 9;
#X msg 92 223 read -resize \$1 \$2;
#X obj 197 165 makefilename counter-%d;
#X obj 86 52 trigger float bang;
#X msg 126 76 0;
#X connect 1 0 17 0;
#X connect 2 0 18 0;
#X connect 3 0 2 0;
#X connect 4 0 5 0;
#X connect 4 0 6 0;
#X connect 5 0 4 1;
#X connect 6 0 3 0;
#X connect 6 1 19 0;
#X connect 16 0 4 0;
#X connect 17 0 20 0;
#X connect 18 0 0 0;
#X connect 19 0 2 1;
#X connect 20 0 16 0;
#X connect 20 1 21 0;
#X connect 21 0 4 1;
#X restore 258 16 pd load samples;
#X obj 39 416 throw~ left;
#X obj 151 347 loadbang;
#X obj 279 416 throw~ left;
#X obj 391 347 loadbang;
#X obj 537 92 loadbang;
#X obj 425 161 *~ 0.5;
#X obj 425 195 throw~ left;
#X obj 505 195 throw~ right;
#X obj 970 303 loadbang;
#X obj 858 372 throw~ right;
#X obj 844 465 throw~ right;
#X obj 844 441 *~ 0.4;
#X obj 794 86 loadbang;
#X obj 40 495 throw~ left;
#X obj 40 471 *~ 0.7;
#X obj 283 498 throw~ left;
#X obj 283 474 *~ 0.7;
#X obj 448 278 throw~ right;
#X obj 421 256 *~ 0.2;
#X obj 367 278 throw~ left;
#X text 440 114 FRANCE;
#X text 697 108 GERMANY;
#X text 54 369 PORTUGAL;
#X text 294 369 SPAIN;
#X text 873 325 ITALY;
#X obj 719 271 throw~ right;
#X obj 692 249 *~ 0.2;
#X obj 638 271 throw~ left;
#X obj 682 150 *~ 0.5;
#X obj 682 184 throw~ left;
#X obj 762 184 throw~ right;
#X msg 537 113 388 507 7414;
#X obj 421 229 framesync/fsreadsf~ filling.wav 388;
#X msg 970 324 398 517 6585;
#X obj 844 414 framesync/fsreadsf~ filling2.wav 398;
#X msg 391 368 408 527 2433;
#X obj 283 447 framesync/fsreadsf~ filling.wav 408;
#X msg 794 107 418 537 893;
#X obj 692 222 framesync/fsreadsf~ filling.wav 418;
#X msg 151 368 428 547 949;
#X obj 40 444 framesync/fsreadsf~ filling2.wav 428;
#X obj 541 514 *~;
#X obj 556 493 receive counters;
#X obj 541 534 throw~ left;
#X obj 39 391 counternode-bin~ 12;
#X obj 279 391 counternode-bin~ 12;
#X obj 425 136 counternode-bin~ 12;
#X obj 858 347 counternode-bin~ 12;
#X obj 682 130 counternode-bin~ 12;
#X connect 0 0 46 0;
#X connect 0 0 47 0;
#X connect 0 0 48 0;
#X connect 0 0 49 0;
#X connect 0 0 50 0;
#X connect 3 0 41 0;
#X connect 5 0 37 0;
#X connect 6 0 33 0;
#X connect 7 0 8 0;
#X connect 7 0 9 0;
#X connect 10 0 35 0;
#X connect 13 0 12 0;
#X connect 14 0 39 0;
#X connect 16 0 15 0;
#X connect 18 0 17 0;
#X connect 20 0 19 0;
#X connect 20 0 21 0;
#X connect 28 0 27 0;
#X connect 28 0 29 0;
#X connect 30 0 31 0;
#X connect 30 0 32 0;
#X connect 33 0 48 1;
#X connect 34 0 20 0;
#X connect 35 0 49 1;
#X connect 36 0 13 0;
#X connect 37 0 47 1;
#X connect 38 0 18 0;
#X connect 39 0 50 1;
#X connect 40 0 28 0;
#X connect 41 0 46 1;
#X connect 42 0 16 0;
#X connect 43 0 45 0;
#X connect 44 0 43 1;
#X connect 46 0 2 0;
#X connect 47 0 4 0;
#X connect 48 0 7 0;
#X connect 49 0 11 0;
#X connect 50 0 30 0;
#X restore 98 260 pd oldworld counters;
#N canvas 333 358 594 330 60framerotate 0;
#X obj 41 24 inlet;
#X obj 299 101 soundfiler;
#X obj 299 53 loadbang;
#X obj 30 245 throw~ left;
#X obj 110 245 throw~ right;
#X obj 39 209 *~;
#X msg 299 78 read -resize ../60framerotate.wav 60framerotate;
#X obj 298 33 table 60framerotate;
#X obj 74 183 receive 60framerotate;
#X obj 20 105 framesync/fstabplay~ 60framerotate 2042;
#X obj 39 127 framesync/fstabplay~ 60framerotate 2523;
#X obj 49 147 framesync/fstabplay~ 60framerotate 4568;
#X connect 2 0 6 0;
#X connect 5 0 4 0;
#X connect 5 0 3 0;
#X connect 6 0 1 0;
#X connect 8 0 5 1;
#X connect 9 0 5 0;
#X connect 10 0 5 0;
#X restore 104 239 pd 60framerotate;
#X obj 236 189 ../tn-hsl 60framerotate;
#X obj 236 166 ../tn-hsl countrywinesing;
#X obj 10 25 framesync/frameclock 8409;
#X obj 14 633 framesync/fsrecordctrl 8409;
#X obj 236 258 ../tn-hsl magicfade;
#X msg 72 5 1400;
#N canvas 0 22 450 300 sendframestovideo 0;
#X obj 135 23 receive framesync/frameclock;
#X obj 135 183 netsend 1;
#X msg 152 163 connect localhost 33333;
#X obj 152 143 loadbang;
#X obj 135 123 cyclone/prepend send;
#X obj 135 47 - 30;
#X obj 135 95 % 8410;
#X obj 135 75 % 8410;
#X connect 0 0 5 0;
#X connect 2 0 1 0;
#X connect 3 0 2 0;
#X connect 4 0 1 0;
#X connect 5 0 7 0;
#X connect 6 0 4 0;
#X connect 7 0 6 0;
#X restore 284 675 pd sendframestovideo;
#X obj 236 327 ../tn-hsl khafadetoband;
#X msg 9 4 980;
#X msg 39 5 1200;
#N canvas 630 381 418 431 khawineband 0;
#X obj 129 240 line~;
#X msg 129 218 \$1 30;
#X obj 130 188 mapping/reverse;
#X obj 98 284 *~;
#X obj 98 351 *~;
#X obj 99 128 +~;
#X obj 94 94 osc~ 440;
#X obj 153 95 osc~ 880;
#X obj 98 373 throw~ left;
#X obj 121 330 receive khafadetoband;
#X obj 34 26 inlet;
#X obj 119 146 framesync/fsline 1291 1358;
#X obj 98 308 *~ 0.5;
#X obj 129 166 framesync/fsline 1500 1630;
#X obj 129 263 *~;
#X connect 0 0 14 0;
#X connect 0 0 14 1;
#X connect 1 0 0 0;
#X connect 2 0 1 0;
#X connect 3 0 12 0;
#X connect 4 0 8 0;
#X connect 5 0 3 0;
#X connect 6 0 5 0;
#X connect 7 0 5 1;
#X connect 9 0 4 1;
#X connect 11 0 1 0;
#X connect 12 0 4 0;
#X connect 13 0 2 0;
#X connect 14 0 3 1;
#X restore 70 381 pd khawineband;
#N canvas 67 273 584 500 khafadetoband 0;
#X obj 37 17 inlet;
#X obj 182 383 *~;
#X obj 199 340 line~;
#X msg 199 318 \$1 30;
#X obj 200 288 mapping/reverse;
#X obj 182 450 *~;
#X obj 182 222 +~;
#X text 109 74 C# 61;
#X text 150 119 E 64;
#X text 260 43 C# 73;
#X text 290 88 E 76;
#X text 434 85 C# 85;
#X text 471 130 E 88;
#X text 115 10 magicfade played at note 15 sounds like note 60;
#X obj 199 266 framesync/fsline 1500 1515;
#X obj 224 88 osc~ 659.2;
#X obj 183 43 osc~ 554.365;
#X obj 352 85 osc~ 1108.73;
#X obj 393 130 osc~ 1318.51;
#X obj 31 74 osc~ 277.183;
#X obj 72 119 osc~ 329.628;
#X obj 195 430 receive khafadetoband;
#X obj 183 62 *~ 0.2;
#X obj 352 104 *~ 0.45;
#X obj 182 474 throw~ left;
#X obj 31 93 *~ 0.05;
#X obj 72 138 *~ 0.2;
#X obj 224 107 *~ 0.35;
#X obj 393 149 *~ 0.05;
#X obj 189 246 framesync/fsline 1291 1358;
#X obj 182 408 *~ 0.5;
#X obj 198 362 *~;
#X connect 1 0 30 0;
#X connect 2 0 31 0;
#X connect 2 0 31 1;
#X connect 3 0 2 0;
#X connect 4 0 3 0;
#X connect 5 0 24 0;
#X connect 6 0 1 0;
#X connect 14 0 4 0;
#X connect 15 0 27 0;
#X connect 16 0 22 0;
#X connect 17 0 23 0;
#X connect 18 0 28 0;
#X connect 19 0 25 0;
#X connect 20 0 26 0;
#X connect 21 0 5 1;
#X connect 22 0 6 0;
#X connect 23 0 6 0;
#X connect 25 0 6 0;
#X connect 26 0 6 0;
#X connect 27 0 6 0;
#X connect 28 0 6 0;
#X connect 29 0 3 0;
#X connect 30 0 5 0;
#X connect 31 0 1 1;
#X restore 76 361 pd khafadetoband;
#N canvas 76 422 1009 405 magicfade 0;
#X obj 37 17 inlet;
#X obj 375 287 *~;
#X obj 375 331 throw~ right;
#X obj 390 237 receive magicfade;
#X obj 498 156 tabosc4~ magicfade;
#X obj 616 156 tabosc4~ magicfade;
#X obj 498 137 mtof;
#X obj 616 136 mtof;
#X obj 551 78 bng 15 250 50 0 empty empty empty 17 7 0 10 -262144 -1
-1;
#X obj 551 57 loadbang;
#X obj 345 380 throw~ left;
#X obj 748 156 tabosc4~ magicfade;
#X obj 866 156 tabosc4~ magicfade;
#X obj 748 137 mtof;
#X obj 866 136 mtof;
#X obj 801 78 bng 15 250 50 0 empty empty empty 17 7 0 10 -262144 -1
-1;
#X obj 801 57 loadbang;
#X obj 248 156 tabosc4~ magicfade;
#X obj 366 156 tabosc4~ magicfade;
#X obj 248 137 mtof;
#X obj 366 136 mtof;
#X msg 367 115 69;
#X msg 249 116 57;
#X obj 301 78 bng 15 250 50 0 empty empty empty 17 7 0 10 -262144 -1
-1;
#X obj 301 57 loadbang;
#X text 276 114 A;
#X text 395 114 A;
#X obj -2 156 tabosc4~ magicfade;
#X obj 116 156 tabosc4~ magicfade;
#X obj -2 137 mtof;
#X obj 116 136 mtof;
#X obj 51 78 bng 15 250 50 0 empty empty empty 17 7 0 10 -262144 -1
-1;
#X obj 51 57 loadbang;
#X text 26 114 C#;
#X text 145 114 E;
#X text 526 114 C#;
#X text 895 114 E;
#X msg -1 116 61;
#X msg 117 115 64;
#X msg 867 115 76;
#X text 776 114 C#;
#X text 645 114 E;
#X msg 749 116 49;
#X msg 499 116 73;
#X msg 617 115 52;
#X obj 375 307 *~ 0.01;
#X obj 601 276 loadbang;
#X obj 803 341 table magicfade 2051;
#X obj 601 337 send magicfade;
#X obj 345 358 ../fadeinout~ 1053 1054 1202 1292;
#X obj 248 190 ../fadeinout~ 1070 1104 1593 1620;
#X obj 748 190 ../fadeinout~ 1093 1130 1500 1515;
#X obj 498 190 ../fadeinout~ 1081 1116 1500 1515;
#X obj -2 190 ../fadeinout~ 1040 1086 1500 1515;
#X msg 615 237 sinesum 2048 1 0.01 0.01 0.1 0.1 0.1 1 0.2 0.1 0.1 0.1
0.3 0.1;
#X msg 601 296 sinesum 2048 0.2 0.4 0.9 0.1 0.1 0.1 0.1 0.2 0.1;
#X msg 612 317 read noisysawtooth.txt;
#X connect 0 0 49 1;
#X connect 0 0 50 1;
#X connect 0 0 51 1;
#X connect 0 0 52 1;
#X connect 0 0 53 1;
#X connect 1 0 45 0;
#X connect 3 0 1 1;
#X connect 4 0 52 0;
#X connect 5 0 52 0;
#X connect 6 0 4 0;
#X connect 7 0 5 0;
#X connect 8 0 43 0;
#X connect 8 0 44 0;
#X connect 9 0 8 0;
#X connect 11 0 51 0;
#X connect 12 0 51 0;
#X connect 13 0 11 0;
#X connect 14 0 12 0;
#X connect 15 0 42 0;
#X connect 15 0 39 0;
#X connect 16 0 15 0;
#X connect 17 0 50 0;
#X connect 18 0 50 0;
#X connect 19 0 17 0;
#X connect 20 0 18 0;
#X connect 21 0 20 0;
#X connect 22 0 19 0;
#X connect 23 0 22 0;
#X connect 23 0 21 0;
#X connect 24 0 23 0;
#X connect 27 0 53 0;
#X connect 28 0 53 0;
#X connect 29 0 27 0;
#X connect 30 0 28 0;
#X connect 31 0 37 0;
#X connect 31 0 38 0;
#X connect 32 0 31 0;
#X connect 37 0 29 0;
#X connect 38 0 30 0;
#X connect 39 0 14 0;
#X connect 42 0 13 0;
#X connect 43 0 6 0;
#X connect 44 0 7 0;
#X connect 45 0 2 0;
#X connect 45 0 49 0;
#X connect 46 0 55 0;
#X connect 49 0 10 0;
#X connect 50 0 1 0;
#X connect 51 0 1 0;
#X connect 52 0 1 0;
#X connect 53 0 1 0;
#X connect 55 0 48 0;
#X connect 56 0 48 0;
#X restore 87 301 pd magicfade;
#N canvas 0 22 409 276 magiccounters 0;
#X obj 26 11 inlet;
#X obj 55 224 throw~ left;
#X obj 167 95 loadbang;
#X obj 55 139 counternode-bin~ 12;
#X obj 317 99 loadbang;
#X obj 205 143 counternode-bin~ 12;
#X obj 205 228 throw~ right;
#X msg 317 120 1081 1130 50;
#X msg 167 115 1051 1110 50;
#X obj 71 161 receive magiccounters;
#X obj 55 199 *~;
#X obj 205 199 *~;
#X connect 0 0 3 0;
#X connect 0 0 5 0;
#X connect 2 0 8 0;
#X connect 3 0 10 0;
#X connect 4 0 7 0;
#X connect 5 0 11 0;
#X connect 7 0 5 1;
#X connect 8 0 3 1;
#X connect 9 0 10 1;
#X connect 9 0 11 1;
#X connect 10 0 1 0;
#X connect 11 0 6 0;
#X restore 81 342 pd magiccounters;
#X obj 236 304 ../tn-hsl magiccounters;
#X obj 236 350 ../tn-hsl clock/ticker;
#X obj 64 401 clock/ticker 4417 4450 3;
#X obj 236 373 ../tn-hsl wineflow;
#N canvas 0 22 643 422 wineflow 0;
#X obj 28 15 inlet;
#X obj 45 393 throw~ left;
#X obj 134 340 receive wineflow;
#X obj 119 393 throw~ right;
#X obj 119 373 *~;
#X obj 45 373 *~;
#X obj 276 24 table bigwaterfallL;
#X obj 276 44 table bigwaterfallR;
#X obj 277 69 loadbang;
#X obj 279 139 soundfiler;
#X msg 278 94 read -resize bigwaterfall.wav bigwaterfallL bigwaterfallR
;
#X connect 2 0 4 1;
#X connect 2 0 5 1;
#X connect 4 0 3 0;
#X connect 5 0 1 0;
#X connect 8 0 10 0;
#X connect 10 0 9 0;
#X restore 54 441 pd wineflow;
#X msg 108 5 4000;
#N canvas 0 22 573 480 datepop 0;
#X obj 22 7 inlet;
#X obj 56 335 *~;
#X obj 56 369 throw~ left;
#X obj 168 369 throw~ right;
#X obj 168 340 *~;
#X obj 190 310 receive datepop;
#X obj 116 41 framesync/fstabplay~ countrypopup 4906;
#X text 353 40 communism;
#X obj 56 87 framesync/fstabplay~ countrypopup 5059;
#X text 293 87 pinochet;
#X text 303 107 french paradox;
#X obj 66 107 framesync/fstabplay~ countrypopup 5212;
#X text 313 127 NAFTA;
#X obj 76 127 framesync/fstabplay~ countrypopup 5670;
#X obj 116 288 *~ 0.5;
#X text 359 147 apartheid;
#X obj 122 147 framesync/fstabplay~ countrypopup 5673;
#X text 405 177 yellowtail;
#X obj 168 177 framesync/fstabplay~ countrypopup 6587;
#X text 304 203 iraq war;
#X obj 67 203 framesync/fstabplay~ countrypopup 7046;
#X obj 70 233 framesync/fstabplay~ countrypopup 7199;
#X text 307 233 sideways;
#X text 360 253 ethanol;
#X obj 123 253 framesync/fstabplay~ countrypopup 7352;
#X connect 1 0 2 0;
#X connect 4 0 3 0;
#X connect 5 0 1 1;
#X connect 5 0 4 1;
#X connect 6 0 14 0;
#X connect 8 0 1 0;
#X connect 11 0 1 0;
#X connect 14 0 1 0;
#X connect 14 0 4 0;
#X connect 16 0 14 0;
#X connect 18 0 4 0;
#X connect 20 0 1 0;
#X connect 21 0 1 0;
#X connect 24 0 14 0;
#X restore 48 461 pd datepop;
#X obj 236 396 ../tn-hsl datepop;
#X obj 59 421 clock/ticker 4600 7670 153;
#N canvas 0 22 585 431 magicfadebacking 0;
#X obj 22 7 inlet;
#X obj 22 375 throw~ left;
#X obj 312 379 throw~ right;
#X obj 22 350 *~;
#X obj 312 350 *~;
#X obj 333 311 receive magicfadebacking;
#X obj 228 67 loadbang;
#X obj 230 137 soundfiler;
#X obj 227 22 table magicfadebackingL;
#X obj 227 42 table magicfadebackingR;
#X msg 229 92 read -resize magicfadebacking.wav magicfadebackingL magicfadebackingR
;
#X obj 312 227 framesync/fstabplay~ magicfadebackingR 1040;
#X obj 22 227 framesync/fstabplay~ magicfadebackingL 1040;
#X obj 22 273 ../fadeinout~ 1040 1090 1095 1130;
#X obj 312 274 ../fadeinout~ 1040 1090 1095 1130;
#X connect 0 0 13 1;
#X connect 0 0 14 1;
#X connect 3 0 1 0;
#X connect 4 0 2 0;
#X connect 5 0 3 1;
#X connect 5 0 4 1;
#X connect 6 0 10 0;
#X connect 10 0 7 0;
#X connect 11 0 14 0;
#X connect 12 0 13 0;
#X connect 13 0 3 0;
#X connect 14 0 4 0;
#X restore 84 320 pd magicfadebacking;
#X obj 236 281 ../tn-hsl magicfadebacking;
#X connect 4 0 3 0;
#X connect 4 0 12 1;
#X connect 5 0 3 1;
#X connect 5 0 12 2;
#X connect 11 0 12 0;
#X connect 29 0 7 0;
#X connect 29 0 19 0;
#X connect 29 0 13 0;
#X connect 29 0 14 0;
#X connect 29 0 24 0;
#X connect 29 0 23 0;
#X connect 29 0 25 0;
#X connect 29 0 18 0;
#X connect 29 0 9 0;
#X connect 29 0 26 0;
#X connect 29 0 30 0;
#X connect 29 0 39 0;
#X connect 29 0 37 0;
#X connect 29 0 38 0;
#X connect 29 0 40 0;
#X connect 29 0 43 0;
#X connect 29 0 45 0;
#X connect 29 0 47 0;
#X connect 29 0 49 0;
#X connect 29 0 50 0;
#X connect 30 0 11 0;
#X connect 32 0 29 0;
#X connect 35 0 29 0;
#X connect 36 0 29 0;
#X connect 46 0 29 0;
