#N canvas 949 348 542 507 10;
#X obj 92 8 inlet;
#X obj 279 474 outlet;
#X obj 20 8 inlet;
#X text 326 473 bang when done;
#X obj 20 339 trigger bang symbol;
#X obj 20 396 tabplay~;
#X msg 131 365 set \$1;
#X obj 20 475 outlet~;
#X obj 113 475 outlet;
#X obj 20 298 random 9;
#X obj 20 319 makefilename counter-%d;
#X obj 51 87 unpack float float float;
#X obj 20 114 ../syncline;
#X obj 20 163 *;
#X obj 20 185 int;
#X obj 20 206 change;
#X obj 20 226 bang;
#X obj 20 42 trigger anything anything;
#X obj 279 429 receive COUNTERNODE_RESET;
#X obj 279 450 bang;
#X obj 20 272 delay;
#X obj 20 252 random 30;
#X obj 20 362 random 400;
#X connect 0 0 12 0;
#X connect 2 0 17 0;
#X connect 4 0 22 0;
#X connect 4 1 6 0;
#X connect 5 0 7 0;
#X connect 6 0 5 0;
#X connect 9 0 10 0;
#X connect 10 0 4 0;
#X connect 11 0 12 1;
#X connect 11 1 12 2;
#X connect 11 2 13 1;
#X connect 12 0 13 0;
#X connect 13 0 14 0;
#X connect 14 0 15 0;
#X connect 15 0 16 0;
#X connect 16 0 21 0;
#X connect 17 1 11 0;
#X connect 18 0 19 0;
#X connect 19 0 1 0;
#X connect 20 0 9 0;
#X connect 21 0 20 0;
#X connect 22 0 5 0;
