#N canvas 485 237 568 558 10;
#X obj 25 11 inlet;
#X obj 157 63 loadbang;
#X obj 157 84 list \$1 \$2 \$3;
#X obj 52 152 *~;
#X obj 67 131 receive counters;
#X obj 269 182 framesync/fstabplay~ filling0 \$1;
#X obj 269 272 zexy/multiplex~ 0 1 2 3;
#X obj 279 202 framesync/fstabplay~ filling1 \$1;
#X obj 289 222 framesync/fstabplay~ filling2 \$1;
#X obj 299 242 framesync/fstabplay~ filling3 \$1;
#X obj 186 206 % 3;
#X floatatom 186 227 5 0 0 0 - - -;
#N canvas 122 145 648 363 sweep 0;
#X obj 218 287 osc~;
#X obj 218 191 line~;
#X obj 218 263 mtof~;
#X obj 72 15 inlet;
#X obj 218 335 outlet~;
#X obj 218 53 framesync/fsline \$1 \$2;
#X obj 218 165 pack 0 0;
#X obj 263 145 framesync/fps_ms;
#X obj 313 75 loadbang;
#X obj 218 239 +~ 52;
#X obj 218 310 ../fadeinout~;
#X obj 283 260 float \$1;
#X obj 342 260 float \$2;
#X obj 289 282 + 30;
#X obj 349 280 - 10;
#X obj 410 174 * 17;
#X obj 410 134 float \$3;
#X obj 410 154 / 7414;
#X obj 218 215 *~;
#X floatatom 425 202 5 0 0 0 - - -;
#X connect 0 0 10 0;
#X connect 1 0 18 0;
#X connect 2 0 0 0;
#X connect 3 0 10 1;
#X connect 5 0 6 0;
#X connect 6 0 1 0;
#X connect 7 0 6 1;
#X connect 8 0 7 0;
#X connect 8 0 11 0;
#X connect 8 0 12 0;
#X connect 8 0 16 0;
#X connect 9 0 2 0;
#X connect 10 0 4 0;
#X connect 11 0 13 0;
#X connect 11 0 10 2;
#X connect 12 0 14 0;
#X connect 12 0 10 5;
#X connect 13 0 10 3;
#X connect 14 0 10 4;
#X connect 15 0 18 1;
#X connect 15 0 19 0;
#X connect 16 0 17 0;
#X connect 17 0 15 0;
#X connect 18 0 9 0;
#X restore 25 347 pd sweep;
#X obj 52 107 counternode-bin~ 2;
#X obj 25 388 *~;
#X obj 40 368 receive fillsweep;
#X obj 202 447 *~;
#X obj 202 488 outlet~;
#X obj 255 398 + 0.5;
#X obj 255 357 / 4700;
#X floatatom 267 419 7 0 0 0 - - -;
#X obj 186 108 unpack 0 0 0;
#X obj 255 378 / 2;
#X connect 0 0 12 0;
#X connect 0 0 13 0;
#X connect 1 0 2 0;
#X connect 2 0 13 1;
#X connect 2 0 21 0;
#X connect 3 0 16 0;
#X connect 4 0 3 1;
#X connect 5 0 6 0;
#X connect 6 0 16 0;
#X connect 7 0 6 1;
#X connect 8 0 6 2;
#X connect 9 0 6 3;
#X connect 10 0 11 0;
#X connect 11 0 6 0;
#X connect 12 0 14 0;
#X connect 13 0 3 0;
#X connect 14 0 16 0;
#X connect 15 0 14 1;
#X connect 16 0 17 0;
#X connect 18 0 20 0;
#X connect 18 0 16 1;
#X connect 19 0 22 0;
#X connect 21 0 10 0;
#X connect 21 2 19 0;
#X connect 22 0 18 0;
