#N canvas 484 475 475 468 10;
#X obj 253 86 soundfiler;
#X obj 253 38 loadbang;
#X obj 150 3 inlet;
#X obj 79 384 *~;
#X obj 96 361 line~;
#X msg 96 339 \$1 30;
#X obj 86 267 framesync/fsline 990 1000;
#X obj 97 309 mapping/reverse;
#X obj 79 421 *~;
#X obj 105 444 throw~ right;
#X obj 30 445 throw~ left;
#X obj 74 190 mtof;
#X obj 192 167 -;
#X obj 192 188 mtof;
#X obj 79 243 +~;
#X obj 30 40 framesync/fsline 991 1064;
#X obj 96 287 framesync/fsline 1050 1080;
#X obj 251 17 table kha 4099;
#X msg 253 63 read kha.wav kha;
#X obj 192 208 tabosc4~ kha;
#X obj 74 209 tabosc4~ kha;
#X obj 91 401 receive kha;
#X obj 30 62 stepper 10;
#X obj 30 85 * 4;
#X msg 192 145 5 \$1;
#X obj 74 170 + 5;
#X obj 286 144 tabread4~;
#X connect 1 0 18 0;
#X connect 3 0 8 0;
#X connect 4 0 3 1;
#X connect 5 0 4 0;
#X connect 6 0 5 0;
#X connect 7 0 5 0;
#X connect 8 0 9 0;
#X connect 8 0 10 0;
#X connect 11 0 20 0;
#X connect 12 0 13 0;
#X connect 13 0 19 0;
#X connect 14 0 3 0;
#X connect 15 0 22 0;
#X connect 16 0 7 0;
#X connect 18 0 0 0;
#X connect 19 0 14 1;
#X connect 20 0 14 0;
#X connect 21 0 8 1;
#X connect 22 0 23 0;
#X connect 23 0 24 0;
#X connect 23 0 25 0;
#X connect 24 0 12 0;
#X connect 25 0 11 0;
