#N canvas 676 245 515 579 10;
#X obj 48 190 tabosc4~ magicfade;
#X obj 49 147 hsl 128 15 0 127 0 0 empty empty empty -2 -8 0 10 -262144
-1 -1 0 1;
#X obj 54 242 dac~;
#X obj 50 112 float;
#X floatatom 61 171 5 0 0 0 - - -;
#X obj 90 113 + 1;
#X obj 47 57 metro 200;
#X obj 43 33 tgl 15 0 empty empty empty 17 7 0 10 -262144 -1 -1 0 1
;
#X msg 74 83 1;
#X obj 205 387 tabosc4~ magicfade;
#X obj 241 157 float;
#X obj 281 156 + 1;
#X obj 241 209 trigger bang anything;
#X obj 323 386 tabosc4~ magicfade;
#X obj 208 338 mtof;
#X obj 325 304 -;
#X obj 327 334 mtof;
#X msg 265 128 0;
#X msg 241 62 bang;
#X obj 241 86 trigger bang bang;
#X msg 358 150 0;
#X obj 241 187 moses 10;
#X obj 297 418 +~;
#X obj 306 535 *~;
#X obj 322 465 line~;
#X msg 326 440 0 \, 1 50;
#X obj 323 493 *~;
#X obj 323 513 *~;
#X obj 385 419 delay 201;
#X obj 176 131 delay 200;
#X obj 241 109 bang;
#X msg 384 441 0 1500;
#X obj 206 291 + 15;
#X msg 324 276 15 \$1;
#X obj 240 12 inlet;
#X obj 22 316 stepper 10;
#X obj 22 280 framesync/fsline 991 1064;
#X obj 26 346 hsl 128 15 0 1 0 0 empty empty empty -2 -8 0 10 -262144
-1 -1 12700 1;
#X obj 20 379 * 10;
#X floatatom 36 415 5 0 0 0 - - -;
#X obj 306 556 outlet~;
#X connect 0 0 2 0;
#X connect 0 0 2 1;
#X connect 1 0 0 0;
#X connect 1 0 4 0;
#X connect 3 0 5 0;
#X connect 3 0 1 0;
#X connect 5 0 3 1;
#X connect 6 0 3 0;
#X connect 7 0 6 0;
#X connect 8 0 3 1;
#X connect 9 0 22 0;
#X connect 10 0 11 0;
#X connect 10 0 21 0;
#X connect 11 0 10 1;
#X connect 12 0 28 0;
#X connect 12 0 29 0;
#X connect 12 1 33 0;
#X connect 12 1 32 0;
#X connect 13 0 22 1;
#X connect 14 0 9 0;
#X connect 15 0 16 0;
#X connect 16 0 13 0;
#X connect 17 0 10 1;
#X connect 18 0 19 0;
#X connect 19 0 30 0;
#X connect 19 1 17 0;
#X connect 19 1 25 0;
#X connect 19 1 20 0;
#X connect 20 0 21 0;
#X connect 21 0 12 0;
#X connect 22 0 23 0;
#X connect 23 0 40 0;
#X connect 24 0 26 0;
#X connect 24 0 26 1;
#X connect 25 0 24 0;
#X connect 26 0 27 0;
#X connect 26 0 27 1;
#X connect 27 0 23 1;
#X connect 28 0 31 0;
#X connect 29 0 30 0;
#X connect 30 0 10 0;
#X connect 31 0 24 0;
#X connect 32 0 14 0;
#X connect 33 0 15 0;
#X connect 34 0 18 0;
#X connect 35 0 37 0;
#X connect 35 0 38 0;
#X connect 36 0 35 0;
#X connect 38 0 39 0;
#X connect 38 0 32 0;
#X connect 38 0 33 0;
