#N canvas 365 418 397 381 10;
#X obj 36 15 inlet;
#X obj 58 237 pan/equal_power_pan~;
#X obj 141 157 list split 3;
#X text 80 16 frame counter;
#X obj 36 183 counternode-bin~ 3;
#X obj 141 81 loadbang;
#X obj 81 309 throw~ left;
#X obj 175 309 throw~ right;
#X obj 175 289 *~;
#X obj 81 289 *~;
#X obj 190 263 receive percentcounters;
#X obj 141 123 list \$1 \$2 \$3 \$4;
#X floatatom 184 193 5 0 0 0 - - -;
#X connect 0 0 4 0;
#X connect 1 0 9 0;
#X connect 1 1 8 0;
#X connect 2 0 4 1;
#X connect 2 1 1 1;
#X connect 2 1 12 0;
#X connect 4 0 1 0;
#X connect 5 0 11 0;
#X connect 8 0 7 0;
#X connect 9 0 6 0;
#X connect 10 0 8 1;
#X connect 10 0 9 1;
#X connect 11 0 2 0;
