#N canvas 396 182 472 401 10;
#X declare -path ..;
#X obj 337 24 pddp/dsp;
#X obj 225 7 ../mix-settings;
#X msg 29 4 444;
#X msg 59 5 5000;
#X obj 366 5 declare -path ..;
#X obj 30 25 framesync/frameclock 4111;
#X obj 40 359 dac~;
#X obj 27 319 catch~ left;
#X obj 101 319 catch~ right;
#X obj 236 51 ../tn-hsl clock/ticker;
#X obj 50 103 clock/ticker 100 500 30;
#N canvas 131 90 450 300 init 0;
#X obj 35 36 loadbang;
#X obj 35 87 send pd;
#X msg 35 64 audio-dialog 0 0 0 0 2 0 0 0 0 0 0 0 2 0 0 0 48000 20
0;
#X connect 0 0 2 0;
#X connect 2 0 1 0;
#X restore 420 24 pd init;
#N canvas 180 321 606 416 rotate 0;
#X obj 90 10 inlet;
#X obj 310 87 soundfiler;
#X obj 310 39 loadbang;
#X obj 309 19 table rotatemap;
#X obj 53 173 framesync/fstabplay~ rotatemap 30;
#X msg 310 64 read -resize ../rotatemap.wav rotatemap;
#X obj 52 226 *~;
#X obj 32 257 throw~ left;
#X obj 112 257 throw~ right;
#X obj 67 202 receive rotatemap;
#X obj 43 153 framesync/fstabplay~ rotatemap 3030;
#X connect 2 0 5 0;
#X connect 4 0 6 0;
#X connect 5 0 1 0;
#X connect 6 0 7 0;
#X connect 6 0 8 0;
#X connect 9 0 6 1;
#X connect 10 0 6 0;
#X restore 44 124 pd rotate map;
#X obj 236 74 ../tn-hsl rotatemap;
#X connect 2 0 5 0;
#X connect 3 0 5 0;
#X connect 5 0 10 0;
#X connect 5 0 12 0;
#X connect 7 0 6 0;
#X connect 8 0 6 1;
