#N canvas 261 311 472 401 10;
#X declare -path ..;
#X obj 337 24 pddp/dsp;
#X obj 225 7 ../mix-settings;
#X obj 366 5 declare -path ..;
#X obj 236 51 ../tn-hsl clock/ticker;
#N canvas 131 90 450 300 init 0;
#X obj 35 36 loadbang;
#X obj 35 87 send pd;
#X msg 35 64 audio-dialog 0 0 0 0 2 0 0 0 0 0 0 0 2 0 0 0 48000 20
0;
#X connect 0 0 2 0;
#X connect 2 0 1 0;
#X restore 420 24 pd init;
#N canvas 180 321 606 416 30framerotate 0;
#X obj 90 10 inlet;
#X obj 310 87 soundfiler;
#X obj 310 39 loadbang;
#X obj 309 19 table 30framerotate;
#X msg 310 64 read -resize ../30framerotate.wav 30framerotate;
#X obj 52 226 *~;
#X obj 32 257 throw~ left;
#X obj 112 257 throw~ right;
#X obj 67 202 receive 30framerotate;
#X obj 53 173 framesync/fstabplay~ 30framerotate 690;
#X obj 43 153 framesync/fstabplay~ 30framerotate 3990;
#X connect 2 0 4 0;
#X connect 4 0 1 0;
#X connect 5 0 6 0;
#X connect 5 0 7 0;
#X connect 8 0 5 1;
#X connect 9 0 5 0;
#X connect 10 0 5 0;
#X restore 62 126 pd 30framerotate;
#N canvas 0 22 450 300 clocks 0;
#X obj 65 15 inlet;
#X obj 65 85 clock/ticker 1 80 5;
#X obj 65 45 framesync/rangemod 1057 3440 233;
#X connect 0 0 2 0;
#X connect 2 0 1 0;
#X restore 70 100 pd clocks;
#X obj 236 74 ../tn-hsl 30framerotate;
#X obj 236 97 ../tn-hsl winenames;
#N canvas 495 22 438 488 winenames 0;
#X obj 44 14 inlet;
#X obj 106 334 *~;
#X obj 42 369 throw~ left;
#X obj 122 369 throw~ right;
#X obj 121 313 receive winenames;
#X obj 31 75 framesync/fsreadsf~ malbec.wav 1000;
#X obj 131 275 framesync/fsreadsf~ moscateldealejandria.wav 3172;
#X obj 41 95 framesync/fsreadsf~ syrah.wav 1217;
#X obj 51 115 framesync/fsreadsf~ merlot.wav 1436;
#X obj 61 135 framesync/fsreadsf~ chenin.wav 1653;
#X obj 71 155 framesync/fsreadsf~ bonarda.wav 1870;
#X obj 81 175 framesync/fsreadsf~ chardonnay.wav 2087;
#X obj 91 195 framesync/fsreadsf~ temperanillo.wav 2304;
#X obj 101 215 framesync/fsreadsf~ pedrogimenez.wav 2521;
#X obj 111 235 framesync/fsreadsf~ cabernetsauvignon.wav 2738;
#X obj 121 255 framesync/fsreadsf~ torrontessanjuanino.wav 2955;
#X connect 1 0 2 0;
#X connect 1 0 3 0;
#X connect 4 0 1 1;
#X connect 5 0 1 0;
#X connect 6 0 1 0;
#X connect 7 0 1 0;
#X connect 8 0 1 0;
#X connect 9 0 1 0;
#X connect 10 0 1 0;
#X connect 11 0 1 0;
#X connect 12 0 1 0;
#X connect 13 0 1 0;
#X connect 14 0 1 0;
#X connect 15 0 1 0;
#X restore 53 147 pd winenames;
#X msg 29 4 900;
#X obj 158 368 dac~;
#X obj 75 325 catch~ left;
#X obj 149 325 catch~ right;
#X obj 29 337 tgl 15 0 empty empty empty 17 7 0 10 -262144 -1 -1 0
1;
#N canvas 152 22 445 336 record 0;
#X obj 127 21 inlet;
#X obj 130 272 writesf~ 2;
#X msg 302 218 open \$1;
#X symbolatom 302 179 0 0 0 0 - - -;
#X obj 166 136 trigger anything bang;
#X msg 166 111 start;
#X msg 129 110 stop;
#X obj 129 82 select 0 1;
#N canvas 301 134 450 268 generate 0;
#X obj 36 19 inlet;
#X obj 31 216 outlet;
#X obj 37 47 trigger bang bang bang;
#X obj 196 74 zexy/time;
#X obj 101 74 hcs/ISOdate;
#X obj 31 131 zexy/makesymbol %s/TN_%s_%s.%s.%s.wav;
#X obj 31 103 pack symbol symbol float float float;
#X symbolatom 41 166 0 0 0 0 - - -;
#X msg 87 15 bang;
#X obj 10 75 ggee/getdir 4;
#X connect 0 0 2 0;
#X connect 2 0 9 0;
#X connect 2 1 4 0;
#X connect 2 2 3 0;
#X connect 3 0 6 2;
#X connect 3 1 6 3;
#X connect 3 2 6 4;
#X connect 4 0 6 1;
#X connect 5 0 1 0;
#X connect 5 0 7 0;
#X connect 6 0 5 0;
#X connect 8 0 9 0;
#X connect 9 0 6 0;
#X restore 302 158 pd generate filename;
#X obj 129 60 tgl 15 0 empty empty empty 17 7 0 10 -262144 -1 -1 0
1;
#X msg 309 137 bang;
#X obj 165 208 inlet~;
#X obj 214 208 inlet~;
#X connect 0 0 9 0;
#X connect 2 0 1 0;
#X connect 3 0 2 0;
#X connect 4 0 1 0;
#X connect 4 1 8 0;
#X connect 5 0 4 0;
#X connect 6 0 1 0;
#X connect 7 0 6 0;
#X connect 7 1 5 0;
#X connect 8 0 3 0;
#X connect 9 0 7 0;
#X connect 10 0 8 0;
#X connect 11 0 1 0;
#X connect 12 0 1 1;
#X restore 28 369 pd record everything;
#X obj 30 304 framesync/fsrecordctrl 4264;
#X obj 30 25 framesync/frameclock 4264;
#X msg 58 5 1001;
#X connect 10 0 17 0;
#X connect 12 0 11 0;
#X connect 12 0 15 1;
#X connect 13 0 11 1;
#X connect 13 0 15 2;
#X connect 14 0 15 0;
#X connect 16 0 14 0;
#X connect 17 0 5 0;
#X connect 17 0 6 0;
#X connect 17 0 9 0;
#X connect 17 0 16 0;
#X connect 18 0 17 0;
