#N canvas 409 22 472 401 10;
#X declare -path ..;
#X obj 337 24 pddp/dsp;
#X obj 225 7 ../mix-settings;
#X obj 366 5 declare -path ..;
#X obj 162 358 dac~;
#X obj 79 315 catch~ left;
#X obj 153 315 catch~ right;
#X obj 236 51 ../tn-hsl clock/ticker;
#N canvas 131 90 450 300 init 0;
#X obj 35 36 loadbang;
#X obj 35 87 send pd;
#X msg 35 64 audio-dialog 0 0 0 0 2 0 0 0 0 0 0 0 2 0 0 0 48000 20
0;
#X connect 0 0 2 0;
#X connect 2 0 1 0;
#X restore 420 24 pd init;
#N canvas 116 286 505 435 latitudetinks 0;
#X obj 111 32 inlet;
#X obj 303 374 *~;
#X obj 303 397 throw~ left;
#X obj 329 84 soundfiler;
#X obj 329 36 loadbang;
#X obj 328 16 table tink;
#X msg 329 61 read -resize tink.wav tink;
#X obj 318 350 receive latitudetinks;
#X obj 96 375 *~;
#X obj 96 398 throw~ left;
#X obj 111 351 receive latitudetinks;
#X obj 17 182 framesync/fstabplay~ tink 890;
#X obj 27 202 framesync/fstabplay~ tink 891;
#X obj 37 222 framesync/fstabplay~ tink 892;
#X obj 47 242 framesync/fstabplay~ tink 892;
#X obj 67 262 framesync/fstabplay~ tink 894;
#X obj 77 282 framesync/fstabplay~ tink 896;
#X obj 86 302 framesync/fstabplay~ tink 897;
#X obj 97 322 framesync/fstabplay~ tink 898;
#X obj 224 180 framesync/fstabplay~ tink 900;
#X obj 234 201 framesync/fstabplay~ tink 901;
#X obj 244 221 framesync/fstabplay~ tink 902;
#X obj 254 241 framesync/fstabplay~ tink 903;
#X obj 274 261 framesync/fstabplay~ tink 904;
#X obj 284 281 framesync/fstabplay~ tink 905;
#X obj 293 301 framesync/fstabplay~ tink 906;
#X obj 304 321 framesync/fstabplay~ tink 909;
#X connect 1 0 2 0;
#X connect 4 0 6 0;
#X connect 6 0 3 0;
#X connect 7 0 1 1;
#X connect 8 0 9 0;
#X connect 10 0 8 1;
#X connect 11 0 8 0;
#X connect 12 0 8 0;
#X connect 13 0 8 0;
#X connect 14 0 8 0;
#X connect 15 0 8 0;
#X connect 16 0 8 0;
#X connect 17 0 8 0;
#X connect 18 0 8 0;
#X connect 19 0 1 0;
#X connect 20 0 1 0;
#X connect 21 0 1 0;
#X connect 22 0 1 0;
#X connect 23 0 1 0;
#X connect 24 0 1 0;
#X connect 25 0 1 0;
#X connect 26 0 1 0;
#X restore 107 101 pd latitudetinks;
#X obj 236 74 ../tn-hsl latitudetinks;
#N canvas 741 533 587 466 countrypopup 0;
#X obj 37 18 inlet;
#X obj 320 97 soundfiler;
#X obj 320 49 loadbang;
#X obj 89 368 *~;
#X obj 89 402 throw~ left;
#X obj 201 402 throw~ right;
#X obj 201 373 *~;
#X obj 223 343 receive countrypopup;
#X obj 319 29 table countrypopup;
#X msg 320 74 read -resize ../corkpop.wav countrypopup;
#X obj 182 202 random 5;
#X obj 182 223 / 5;
#X obj 89 316 voicepoly 5 ../multiplay~ countrypopup;
#X obj 89 124 select 0;
#X obj 89 246 pack float float;
#X obj 89 179 trigger bang bang;
#X obj 89 222 random 200;
#X obj 37 56 moses 996;
#X obj 89 101 % 5;
#X obj 89 77 moses 1316;
#X connect 0 0 17 0;
#X connect 2 0 9 0;
#X connect 3 0 4 0;
#X connect 6 0 5 0;
#X connect 7 0 3 1;
#X connect 7 0 6 1;
#X connect 9 0 1 0;
#X connect 10 0 11 0;
#X connect 11 0 14 1;
#X connect 12 0 3 0;
#X connect 12 1 6 0;
#X connect 13 0 15 0;
#X connect 14 0 12 0;
#X connect 15 0 16 0;
#X connect 15 1 10 0;
#X connect 16 0 14 0;
#X connect 17 1 19 0;
#X connect 18 0 13 0;
#X connect 19 0 18 0;
#X restore 98 120 pd countrypopup;
#X obj 236 97 ../tn-hsl countrypopup;
#N canvas 579 437 587 466 zoompopup 0;
#X obj 37 18 inlet;
#X obj 320 97 soundfiler;
#X obj 320 49 loadbang;
#X obj 91 368 *~;
#X obj 91 402 throw~ left;
#X obj 203 402 throw~ right;
#X obj 203 373 *~;
#X obj 319 29 table zoompopup;
#X msg 320 74 read -resize ../corkpop.wav zoompopup;
#X obj 91 316 voicepoly 5 ../multiplay~ zoompopup;
#X obj 225 344 receive zoompopup;
#X obj 94 102 % 20;
#X obj 94 125 select 0;
#X msg 94 249 0 0.5;
#X obj 94 78 moses 1750;
#X obj 37 56 moses 1655;
#X connect 0 0 15 0;
#X connect 2 0 8 0;
#X connect 3 0 4 0;
#X connect 6 0 5 0;
#X connect 8 0 1 0;
#X connect 9 0 3 0;
#X connect 9 1 6 0;
#X connect 10 0 3 1;
#X connect 10 0 6 1;
#X connect 11 0 12 0;
#X connect 12 0 13 0;
#X connect 13 0 9 0;
#X connect 14 0 11 0;
#X connect 15 1 14 0;
#X restore 91 140 pd zoompopup;
#X obj 236 120 ../tn-hsl zoompopup;
#X obj 236 143 ../tn-hsl 60framerotate;
#N canvas 584 132 594 440 60framerotate 0;
#X obj 41 24 inlet;
#X obj 289 61 soundfiler;
#X obj 289 13 loadbang;
#X obj 39 361 throw~ left;
#X obj 119 361 throw~ right;
#X obj 288 -7 table 60framerotate;
#X obj 106 170 receive 60framerotate;
#X obj 71 197 *~;
#X msg 289 38 read -resize ../60framerotate.wav 60framerotate;
#X obj 71 144 framesync/fstabplay~ 60framerotate 2520;
#X obj 57 123 framesync/fstabplay~ 60framerotate 2040;
#X obj 41 100 framesync/fstabplay~ 60framerotate 390;
#X obj 158 298 *~;
#X obj 222 273 receive 60framerotate;
#X obj 187 300 *~;
#X obj 158 225 framesync/fstabplay~ 60framerotate 1140;
#X obj 187 247 framesync/fstabplay~ 60framerotate 1560;
#X text 224 206 TODO these should be 90 frames long;
#X connect 2 0 8 0;
#X connect 6 0 7 1;
#X connect 8 0 1 0;
#X connect 9 0 7 0;
#X connect 10 0 7 0;
#X connect 11 0 7 0;
#X connect 12 0 3 0;
#X connect 13 0 12 1;
#X connect 13 0 14 1;
#X connect 14 0 4 0;
#X connect 15 0 12 0;
#X connect 16 0 14 0;
#X restore 73 161 pd 60framerotate;
#X obj 33 327 tgl 15 0 empty empty empty 17 7 0 10 -262144 -1 -1 0
1;
#N canvas 0 22 445 336 record 0;
#X obj 127 21 inlet;
#X obj 130 272 writesf~ 2;
#X msg 302 218 open \$1;
#X symbolatom 302 179 0 0 0 0 - - -;
#X obj 166 136 trigger anything bang;
#X msg 166 111 start;
#X msg 129 110 stop;
#X obj 129 82 select 0 1;
#N canvas 301 134 450 268 generate 0;
#X obj 36 19 inlet;
#X obj 31 216 outlet;
#X obj 37 47 trigger bang bang bang;
#X obj 196 74 zexy/time;
#X obj 101 74 hcs/ISOdate;
#X obj 31 131 zexy/makesymbol %s/TN_%s_%s.%s.%s.wav;
#X obj 31 103 pack symbol symbol float float float;
#X symbolatom 41 166 0 0 0 0 - - -;
#X msg 87 15 bang;
#X obj 10 75 ggee/getdir 4;
#X connect 0 0 2 0;
#X connect 2 0 9 0;
#X connect 2 1 4 0;
#X connect 2 2 3 0;
#X connect 3 0 6 2;
#X connect 3 1 6 3;
#X connect 3 2 6 4;
#X connect 4 0 6 1;
#X connect 5 0 1 0;
#X connect 5 0 7 0;
#X connect 6 0 5 0;
#X connect 8 0 9 0;
#X connect 9 0 6 0;
#X restore 302 158 pd generate filename;
#X obj 129 60 tgl 15 0 empty empty empty 17 7 0 10 -262144 -1 -1 0
1;
#X msg 309 137 bang;
#X obj 165 208 inlet~;
#X obj 214 208 inlet~;
#X connect 0 0 9 0;
#X connect 2 0 1 0;
#X connect 3 0 2 0;
#X connect 4 0 1 0;
#X connect 4 1 8 0;
#X connect 5 0 4 0;
#X connect 6 0 1 0;
#X connect 7 0 6 0;
#X connect 7 1 5 0;
#X connect 8 0 3 0;
#X connect 9 0 7 0;
#X connect 10 0 8 0;
#X connect 11 0 1 0;
#X connect 12 0 1 1;
#X restore 32 359 pd record everything;
#X obj 30 25 framesync/frameclock 2612;
#X obj 34 294 framesync/fsrecordctrl 2612;
#N canvas 395 214 436 381 countrywinesing 0;
#X obj 41 24 inlet;
#X obj 53 333 throw~ left;
#X obj 133 333 throw~ right;
#X obj 90 274 *~;
#X text 251 115 france;
#X text 306 176 germany;
#X text 267 135 italy;
#X text 292 156 spain;
#X text 313 198 portugal;
#X obj 19 117 framesync/fstabplay~ 30framerotate 65;
#X obj 34 137 framesync/fstabplay~ 30framerotate 280;
#X obj 50 157 framesync/fstabplay~ 30framerotate 290;
#X obj 64 177 framesync/fstabplay~ 30framerotate 300;
#X obj 76 200 framesync/fstabplay~ 30framerotate 325;
#X obj 115 74 soundfiler;
#X obj 115 26 loadbang;
#X obj 114 6 table 30framerotate;
#X msg 115 51 read -resize ../30framerotate.wav 30framerotate;
#X obj 125 247 receive 30framerotate;
#X connect 3 0 2 0;
#X connect 3 0 1 0;
#X connect 9 0 3 0;
#X connect 10 0 3 0;
#X connect 11 0 3 0;
#X connect 12 0 3 0;
#X connect 13 0 3 0;
#X connect 15 0 17 0;
#X connect 17 0 14 0;
#X connect 18 0 3 1;
#X restore 66 184 pd countrywinesing;
#X obj 236 166 ../tn-hsl 30framerotate;
#N canvas 323 285 450 300 shimmeringfields 0;
#X obj 26 5 inlet;
#X obj 130 222 *~;
#X obj 42 277 throw~ left;
#X obj 162 277 throw~ right;
#X obj 144 106 framesync/fsfilelooper~ ../shimmer.wav 1560 2612;
#X obj 145 197 receive shimmeringfields;
#X obj 130 175 *~;
#X obj 60 122 line~;
#X obj 59 100 pack 0 0;
#X obj 104 77 framesync/fps_ms;
#X obj 104 57 loadbang;
#X obj 59 35 framesync/fsline 1560 1860;
#X connect 1 0 3 0;
#X connect 1 0 2 0;
#X connect 4 0 6 1;
#X connect 5 0 1 1;
#X connect 6 0 1 0;
#X connect 7 0 6 0;
#X connect 8 0 7 0;
#X connect 9 0 8 1;
#X connect 10 0 9 0;
#X connect 11 0 8 0;
#X restore 61 205 pd shimmeringfields;
#X obj 236 189 ../tn-hsl shimmeringfields;
#X obj 236 212 ../tn-hsl counters;
#N canvas 16 150 1000 527 counters 0;
#X obj 46 10 inlet;
#N canvas 380 576 505 307 load 0;
#X obj 92 252 soundfiler;
#X obj 86 7 loadbang;
#X obj 92 201 pack symbol symbol;
#X obj 27 165 makefilename counter%d.wav;
#X obj 86 107 float;
#X obj 124 107 + 1;
#X obj 86 131 trigger float float;
#X obj 375 32 table counter-0;
#X obj 375 52 table counter-1;
#X obj 375 73 table counter-2;
#X obj 375 92 table counter-3;
#X obj 375 112 table counter-4;
#X obj 375 132 table counter-5;
#X obj 375 152 table counter-6;
#X obj 375 172 table counter-7;
#X obj 375 192 table counter-8;
#X obj 86 76 until;
#X msg 86 27 9;
#X msg 92 223 read -resize \$1 \$2;
#X obj 197 165 makefilename counter-%d;
#X obj 86 52 trigger float bang;
#X msg 126 76 0;
#X connect 1 0 17 0;
#X connect 2 0 18 0;
#X connect 3 0 2 0;
#X connect 4 0 5 0;
#X connect 4 0 6 0;
#X connect 5 0 4 1;
#X connect 6 0 3 0;
#X connect 6 1 19 0;
#X connect 16 0 4 0;
#X connect 17 0 20 0;
#X connect 18 0 0 0;
#X connect 19 0 2 1;
#X connect 20 0 16 0;
#X connect 20 1 21 0;
#X connect 21 0 4 1;
#X restore 258 16 pd load samples;
#X obj 29 176 throw~ left;
#X msg 141 128 2131 2250 2300;
#X text 44 129 UNITED STATES;
#X obj 141 107 loadbang;
#X obj 39 246 throw~ left;
#X obj 151 177 loadbang;
#X obj 279 176 throw~ left;
#X obj 391 107 loadbang;
#X obj 279 246 throw~ left;
#X obj 391 177 loadbang;
#X obj 30 151 counternode-bin~ 50;
#X obj 39 221 counternode-bin~ 50;
#X obj 279 221 counternode-bin~ 50;
#X obj 279 151 counternode-bin~ 50;
#X obj 651 127 loadbang;
#X obj 539 171 counternode-bin~ 50;
#X obj 539 196 *~ 0.5;
#X obj 539 230 throw~ left;
#X obj 619 230 throw~ right;
#X obj 891 127 loadbang;
#X obj 779 171 counternode-bin~ 50;
#X text 794 149 AUSTRALIA;
#X obj 779 196 throw~ right;
#X text 554 149 SOUTH AFRICA;
#X text 294 199 ARGENTINA;
#X text 54 199 CHILE;
#X text 294 129 CANADA;
#X msg 391 198 2161 2250 1520;
#X msg 891 148 2191 2310 1245;
#X msg 651 148 2221 2340 1026;
#X msg 391 128 2281 2400 39;
#X msg 151 198 2251 2370 850;
#X obj 101 376 throw~ left;
#X obj 101 352 *~ 0.7;
#X obj 443 376 throw~ right;
#X obj 443 325 framesync/fsreadsf~ filling.wav 2191;
#X obj 101 325 framesync/fsreadsf~ filling2.wav 2131;
#X obj 443 352 *~ 0.4;
#X connect 0 0 12 0;
#X connect 0 0 13 0;
#X connect 0 0 14 0;
#X connect 0 0 15 0;
#X connect 0 0 17 0;
#X connect 0 0 22 0;
#X connect 3 0 12 1;
#X connect 5 0 3 0;
#X connect 7 0 33 0;
#X connect 9 0 32 0;
#X connect 11 0 29 0;
#X connect 12 0 2 0;
#X connect 13 0 6 0;
#X connect 14 0 10 0;
#X connect 15 0 8 0;
#X connect 16 0 31 0;
#X connect 17 0 18 0;
#X connect 18 0 19 0;
#X connect 18 0 20 0;
#X connect 21 0 30 0;
#X connect 22 0 24 0;
#X connect 29 0 14 1;
#X connect 30 0 22 1;
#X connect 31 0 17 1;
#X connect 32 0 15 1;
#X connect 33 0 13 1;
#X connect 35 0 34 0;
#X connect 37 0 39 0;
#X connect 38 0 35 0;
#X connect 39 0 36 0;
#X restore 53 226 pd counters;
#X msg 59 5 2100;
#X obj 236 235 ../tn-hsl winningping;
#N canvas 0 22 535 358 winningping 0;
#X obj 36 15 inlet;
#X obj 137 137 *~;
#X obj 49 192 throw~ left;
#X obj 169 192 throw~ right;
#X obj 152 113 receive winningping;
#X obj 137 90 framesync/fsreadsf~ winningping.wav 196;
#X connect 1 0 3 0;
#X connect 1 0 2 0;
#X connect 4 0 1 1;
#X connect 5 0 1 0;
#X restore 44 248 pd winningping;
#X msg 29 4 150;
#X connect 4 0 3 0;
#X connect 4 0 17 1;
#X connect 5 0 3 1;
#X connect 5 0 17 2;
#X connect 16 0 17 0;
#X connect 18 0 8 0;
#X connect 18 0 15 0;
#X connect 18 0 19 0;
#X connect 18 0 20 0;
#X connect 18 0 22 0;
#X connect 18 0 25 0;
#X connect 19 0 16 0;
#X connect 26 0 18 0;
#X connect 29 0 18 0;
