#N canvas 83 408 543 441 10;
#X obj 21 6 inlet;
#X obj 178 399 outlet~;
#X obj 178 272 *~;
#X obj 178 370 *~;
#X obj 193 349 line~;
#X obj 184 224 print \$1_COUNTER_OVERLOAD;
#X obj 178 5 inlet;
#X obj 178 36 trigger bang anything;
#X obj 178 61 float \$1;
#X obj 178 84 until;
#X obj 178 107 list;
#X obj 193 328 ../syncline;
#X obj 256 305 + 190;
#X obj 249 280 unpack float float float;
#X obj 178 197 voicepoly \$1 counternode;
#X obj 193 251 receive counters;
#X connect 0 0 11 0;
#X connect 0 0 14 1;
#X connect 2 0 3 0;
#X connect 3 0 1 0;
#X connect 4 0 3 1;
#X connect 6 0 7 0;
#X connect 7 0 8 0;
#X connect 7 1 10 1;
#X connect 7 1 13 0;
#X connect 8 0 9 0;
#X connect 9 0 10 0;
#X connect 10 0 14 0;
#X connect 11 0 4 0;
#X connect 12 0 11 2;
#X connect 13 0 11 1;
#X connect 13 0 12 0;
#X connect 14 0 2 0;
#X connect 14 2 5 0;
#X connect 15 0 2 1;
