#N canvas 252 319 475 468 10;
#X obj 253 86 soundfiler;
#X obj 253 38 loadbang;
#X obj 251 17 table magicfade 2051;
#X msg 253 63 read magicfade.wav magicfade;
#X obj 150 3 inlet;
#X obj 79 354 *~;
#X obj 96 331 line~;
#X msg 96 309 \$1 30;
#X obj 97 279 mapping/reverse;
#X obj 79 421 *~;
#X obj 105 444 throw~ right;
#X obj 30 445 throw~ left;
#X obj 92 401 receive magicfade;
#X obj 74 179 tabosc4~ magicfade;
#X obj 192 178 tabosc4~ magicfade;
#X obj 74 160 mtof;
#X obj 192 137 -;
#X obj 192 158 mtof;
#X obj 79 213 +~;
#X obj 74 140 + 15;
#X msg 192 115 15 \$1;
#X obj 30 62 stepper 10;
#X obj 30 85 * 10;
#X obj 30 40 framesync/fsline 1053 1120;
#X obj 96 257 framesync/fsline 1100 1120;
#X obj 86 237 framesync/fsline 1053 1073;
#X obj 79 379 *~ 3;
#X connect 1 0 3 0;
#X connect 3 0 0 0;
#X connect 5 0 26 0;
#X connect 6 0 5 1;
#X connect 7 0 6 0;
#X connect 8 0 7 0;
#X connect 9 0 10 0;
#X connect 9 0 11 0;
#X connect 12 0 9 1;
#X connect 13 0 18 0;
#X connect 14 0 18 1;
#X connect 15 0 13 0;
#X connect 16 0 17 0;
#X connect 17 0 14 0;
#X connect 18 0 5 0;
#X connect 19 0 15 0;
#X connect 20 0 16 0;
#X connect 21 0 22 0;
#X connect 22 0 20 0;
#X connect 22 0 19 0;
#X connect 23 0 21 0;
#X connect 24 0 8 0;
#X connect 25 0 7 0;
#X connect 26 0 9 0;
