#N canvas 209 235 478 516 10;
#X obj 93 0 loadbang;
#X obj 295 45 table magicfade 2051;
#X obj 20 7 inlet;
#X obj 79 404 *~;
#X obj 96 381 line~;
#X msg 96 359 \$1 30;
#X obj 97 329 mapping/reverse;
#X obj 79 471 *~;
#X obj 105 494 throw~ right;
#X obj 30 495 throw~ left;
#X obj 92 451 receive magicfade;
#X obj 74 229 tabosc4~ magicfade;
#X obj 192 228 tabosc4~ magicfade;
#X obj 74 210 mtof;
#X obj 192 187 -;
#X obj 192 208 mtof;
#X obj 79 263 +~;
#X obj 30 135 * 10;
#X obj 30 70 framesync/fsline 1053 1120;
#X obj 96 307 framesync/fsline 1100 1120;
#X obj 86 287 framesync/fsline 1053 1073;
#X obj 93 41 send magicfade;
#X msg 93 20 sinesum 2048 1 0.02 0.05 1 0.5 0.5 1 0.2 0.1 0.1 0.1 0.3
0.1;
#X obj 74 190 + 51;
#X msg 192 165 51 \$1;
#X obj 79 429 *~ 0.1;
#X obj 30 113 change;
#X obj 30 92 mapping/stepper 10;
#X connect 0 0 22 0;
#X connect 3 0 25 0;
#X connect 4 0 3 1;
#X connect 5 0 4 0;
#X connect 6 0 5 0;
#X connect 7 0 8 0;
#X connect 7 0 9 0;
#X connect 10 0 7 1;
#X connect 11 0 16 0;
#X connect 12 0 16 1;
#X connect 13 0 11 0;
#X connect 14 0 15 0;
#X connect 15 0 12 0;
#X connect 15 0 12 1;
#X connect 16 0 3 0;
#X connect 17 0 24 0;
#X connect 17 0 23 0;
#X connect 18 0 27 0;
#X connect 19 0 6 0;
#X connect 20 0 5 0;
#X connect 22 0 21 0;
#X connect 23 0 13 0;
#X connect 24 0 14 0;
#X connect 25 0 7 0;
#X connect 26 0 17 0;
#X connect 27 0 26 0;
