#N canvas 1017 428 486 405 10;
#X obj 176 146 trigger anything bang;
#X msg 176 121 start;
#X msg 139 120 stop;
#X obj 139 92 select 0 1;
#X obj 139 70 tgl 15 0 empty empty empty 17 7 0 10 -262144 -1 -1 0
1;
#X obj 140 282 writesf~ 1;
#X msg 208 242 open /tmp/magicfade.wav;
#X obj 84 189 tabosc4~ magicfade;
#X obj 84 170 mtof;
#X msg 85 121 15;
#X connect 0 0 5 0;
#X connect 0 1 6 0;
#X connect 1 0 0 0;
#X connect 2 0 5 0;
#X connect 3 0 2 0;
#X connect 3 1 1 0;
#X connect 4 0 3 0;
#X connect 6 0 5 0;
#X connect 7 0 5 0;
#X connect 8 0 7 0;
#X connect 9 0 8 0;
