#N canvas 145 355 518 379 10;
#X obj 22 28 inlet;
#X text 62 27 clock input;
#X obj 342 31 table \$0-tick;
#X obj 342 51 table \$0-tock;
#X obj 299 298 soundfiler;
#X msg 300 229 read -resize tick.wav \$1;
#X obj 300 207 symbol \$0-tick;
#X obj 294 179 loadbang;
#X msg 267 272 read -resize tock.wav \$1;
#X obj 267 250 symbol \$0-tock;
#X obj 32 249 tabplay~ \$0-tick;
#X obj 137 250 tabplay~ \$0-tick;
#X obj 66 167 select 0;
#X obj 66 194 purepd/alternate;
#X obj 32 336 *~;
#X obj 152 336 *~;
#X obj 43 302 receive clock/ticker;
#X obj 32 357 throw~ left;
#X obj 152 357 throw~ right;
#X obj 22 67 moses \$1;
#X obj 66 87 moses \$2;
#X obj 66 139 % \$3;
#X obj 66 111 - \$1;
#X connect 0 0 19 0;
#X connect 5 0 4 0;
#X connect 6 0 5 0;
#X connect 7 0 6 0;
#X connect 7 0 9 0;
#X connect 8 0 4 0;
#X connect 9 0 8 0;
#X connect 10 0 14 0;
#X connect 11 0 15 0;
#X connect 12 0 13 0;
#X connect 13 0 10 0;
#X connect 13 1 11 0;
#X connect 14 0 17 0;
#X connect 15 0 18 0;
#X connect 16 0 14 1;
#X connect 16 0 15 1;
#X connect 19 1 20 0;
#X connect 20 0 22 0;
#X connect 21 0 12 0;
#X connect 22 0 21 0;
