#N canvas 440 205 472 401 10;
#X declare -path ..;
#X obj 337 24 pddp/dsp;
#X obj 225 7 ../mix-settings;
#X obj 366 5 declare -path ..;
#X obj 236 51 ../tn-hsl clock/ticker;
#N canvas 131 90 450 300 init 0;
#X obj 35 36 loadbang;
#X obj 35 87 send pd;
#X msg 35 64 audio-dialog 0 0 0 0 2 0 0 0 0 0 0 0 2 0 0 0 48000 20
0;
#X connect 0 0 2 0;
#X connect 2 0 1 0;
#X restore 420 24 pd init;
#N canvas 180 321 606 416 30framerotate 0;
#X obj 90 10 inlet;
#X obj 310 87 soundfiler;
#X obj 310 39 loadbang;
#X obj 309 19 table 30framerotate;
#X msg 310 64 read -resize ../30framerotate.wav 30framerotate;
#X obj 52 226 *~;
#X obj 32 257 throw~ left;
#X obj 112 257 throw~ right;
#X obj 67 202 receive 30framerotate;
#X obj 53 173 framesync/fstabplay~ 30framerotate 850;
#X connect 2 0 4 0;
#X connect 4 0 1 0;
#X connect 5 0 6 0;
#X connect 5 0 7 0;
#X connect 8 0 5 1;
#X connect 9 0 5 0;
#X restore 72 120 pd 30framerotate;
#X obj 236 74 ../tn-hsl 30framerotate;
#X msg 29 4 900;
#X obj 158 368 dac~;
#X obj 75 325 catch~ left;
#X obj 149 325 catch~ right;
#X obj 29 337 tgl 15 0 empty empty empty 17 7 0 10 -262144 -1 -1 0
1;
#N canvas 152 22 445 336 record 0;
#X obj 127 21 inlet;
#X obj 130 272 writesf~ 2;
#X msg 302 218 open \$1;
#X symbolatom 302 179 0 0 0 0 - - -;
#X obj 166 136 trigger anything bang;
#X msg 166 111 start;
#X msg 129 110 stop;
#X obj 129 82 select 0 1;
#N canvas 301 134 450 268 generate 0;
#X obj 36 19 inlet;
#X obj 31 216 outlet;
#X obj 37 47 trigger bang bang bang;
#X obj 196 74 zexy/time;
#X obj 101 74 hcs/ISOdate;
#X obj 31 131 zexy/makesymbol %s/TN_%s_%s.%s.%s.wav;
#X obj 31 103 pack symbol symbol float float float;
#X symbolatom 41 166 0 0 0 0 - - -;
#X msg 87 15 bang;
#X obj 10 75 ggee/getdir 4;
#X connect 0 0 2 0;
#X connect 2 0 9 0;
#X connect 2 1 4 0;
#X connect 2 2 3 0;
#X connect 3 0 6 2;
#X connect 3 1 6 3;
#X connect 3 2 6 4;
#X connect 4 0 6 1;
#X connect 5 0 1 0;
#X connect 5 0 7 0;
#X connect 6 0 5 0;
#X connect 8 0 9 0;
#X connect 9 0 6 0;
#X restore 302 158 pd generate filename;
#X obj 129 60 tgl 15 0 empty empty empty 17 7 0 10 -262144 -1 -1 0
1;
#X msg 309 137 bang;
#X obj 165 208 inlet~;
#X obj 214 208 inlet~;
#X connect 0 0 9 0;
#X connect 2 0 1 0;
#X connect 3 0 2 0;
#X connect 4 0 1 0;
#X connect 4 1 8 0;
#X connect 5 0 4 0;
#X connect 6 0 1 0;
#X connect 7 0 6 0;
#X connect 7 1 5 0;
#X connect 8 0 3 0;
#X connect 9 0 7 0;
#X connect 10 0 8 0;
#X connect 11 0 1 0;
#X connect 12 0 1 1;
#X restore 28 369 pd record everything;
#X msg 58 5 1001;
#N canvas 0 22 613 368 growing 0;
#X obj 79 30 inlet;
#X obj 315 315 *~;
#X obj 48 315 *~;
#X obj 48 338 throw~ left;
#X obj 315 338 throw~ right;
#X obj 330 291 receive growing;
#X obj 314 122 soundfiler;
#X obj 314 74 loadbang;
#X obj 313 34 table growingL;
#X obj 313 54 table growingR;
#X msg 314 99 read -resize ../shimmer.wav growingL growingR;
#X obj 94 157 mapping/reverse;
#X obj 315 272 *~;
#X obj 48 272 *~;
#X obj 82 183 float;
#X obj 48 233 framesync/fstablooper~ growingL 850 2702;
#X obj 315 232 framesync/fstablooper~ growingR 850 2702;
#X obj 94 123 framesync/fsline 2700 2702;
#X obj 82 102 framesync/fsline 850 910;
#X connect 1 0 4 0;
#X connect 2 0 3 0;
#X connect 5 0 1 1;
#X connect 5 0 2 1;
#X connect 7 0 10 0;
#X connect 10 0 6 0;
#X connect 11 0 14 0;
#X connect 12 0 1 0;
#X connect 13 0 2 0;
#X connect 14 0 12 1;
#X connect 14 0 13 1;
#X connect 15 0 13 0;
#X connect 16 0 12 0;
#X connect 17 0 11 0;
#X connect 18 0 14 0;
#X restore 44 183 pd growing;
#X obj 236 143 ../tn-hsl growing;
#N canvas 180 321 627 308 60framerotate 0;
#X obj 90 10 inlet;
#X obj 310 87 soundfiler;
#X obj 310 39 loadbang;
#X obj 52 226 *~;
#X obj 32 257 throw~ left;
#X obj 112 257 throw~ right;
#X msg 310 64 read -resize ../60framerotate.wav 60framerotate;
#X obj 309 19 table 60framerotate;
#X obj 67 202 receive 60framerotate;
#X obj 52 163 framesync/fstabplay~ 60framerotate 430;
#X connect 2 0 6 0;
#X connect 3 0 4 0;
#X connect 3 0 5 0;
#X connect 6 0 1 0;
#X connect 8 0 3 1;
#X connect 9 0 3 0;
#X restore 62 140 pd 60framerotate;
#X obj 236 97 ../tn-hsl 60framerotate;
#X obj 30 25 framesync/frameclock 2702;
#X obj 30 304 framesync/fsrecordctrl 2702;
#X connect 7 0 18 0;
#X connect 9 0 8 0;
#X connect 9 0 12 1;
#X connect 10 0 8 1;
#X connect 10 0 12 2;
#X connect 11 0 12 0;
#X connect 13 0 18 0;
#X connect 18 0 5 0;
#X connect 18 0 14 0;
#X connect 18 0 16 0;
#X connect 18 0 19 0;
#X connect 19 0 11 0;
